<?xml version="1.0" encoding="utf-8"?>
<!-- Generator: Adobe Illustrator 22.1.0, SVG Export Plug-In . SVG Version: 6.00 Build 0)  -->
<svg version="1.1" xmlns="http://www.w3.org/2000/svg" xmlns:xlink="http://www.w3.org/1999/xlink" x="0px" y="0px"
	 viewBox="0 0 105 105" style="enable-background:new 0 0 105 105;" xml:space="preserve">
<style type="text/css">
	.st0{fill:#F15A24;}
	.st1{display:none;}
	.st2{display:inline;fill:#F15A24;}
	.st3{display:inline;}
	.st4{display:inline;fill:none;stroke:#000000;stroke-miterlimit:10;}
	.st5{fill:#FFFFFF;stroke:#000000;stroke-miterlimit:10;}
	.st6{display:inline;fill:#FFFFFF;stroke:#000000;stroke-miterlimit:10;}
	.st7{fill:none;stroke:#000000;stroke-miterlimit:10;}
	.st8{fill:#E76F51;}
	.st9{fill:#ED1E79;}
	.st10{stroke:#000000;stroke-miterlimit:10;}
	.st11{fill:#FFFFFF;}
	.st12{display:none;fill:url(#);}
	.st13{fill:none;stroke:#12100B;stroke-width:0.5;stroke-miterlimit:10;}
	.st14{fill:none;stroke:#13110C;stroke-width:0.5;stroke-linecap:round;stroke-miterlimit:10;}
	.st15{fill:#12100B;}
	.st16{fill:#2A9D8F;}
	.st17{display:none;fill:#264653;}
	.st18{fill:#F2F2F2;}
	.st19{fill:#F4A261;}
	.st20{display:inline;fill:#F2F2F2;}
	.st21{clip-path:url(#SVGID_2_);fill:#F2F2F2;}
	.st22{clip-path:url(#SVGID_4_);fill:#E76F51;}
	.st23{clip-path:url(#SVGID_6_);fill:#E76F51;}
	.st24{clip-path:url(#SVGID_8_);fill:#E76F51;}
	.st25{clip-path:url(#SVGID_10_);fill:#F2F2F2;}
	.st26{clip-path:url(#SVGID_12_);fill:#F2F2F2;}
	.st27{clip-path:url(#SVGID_14_);fill:#F2F2F2;}
	.st28{clip-path:url(#SVGID_16_);fill:#F2F2F2;}
	.st29{clip-path:url(#SVGID_18_);fill:#F2F2F2;}
	.st30{clip-path:url(#SVGID_20_);fill:#E76F51;}
	.st31{clip-path:url(#SVGID_22_);fill:#E76F51;}
	.st32{clip-path:url(#SVGID_24_);fill:#E76F51;}
	.st33{fill:#264653;}
</style>
<g id="Layer_2">
</g>
<g id="Layer_1">
</g>
<g id="Layer_3">
</g>
<g id="Layer_4">
</g>
<g id="Guides" class="st1">
</g>
<g id="Layer_5">
</g>
<g id="Layer_7">
	<g>
		<g>
			<path class="st18" d="M87.2,38.6c-0.4-0.8-1.2-1.3-2-1.3h-1.8c-0.9,0-1.7,0.5-2,1.3c-0.4,0.8-0.2,1.7,0.3,2.4l0.9,1.1
				c0.4,0.5,1.1,0.8,1.7,0.8c0.7,0,1.3-0.3,1.7-0.8l0.9-1.1C87.5,40.3,87.6,39.4,87.2,38.6L87.2,38.6z M87.2,38.6"/>
			<path class="st18" d="M78.3,30.7c-0.5,0-1,0.2-1.4,0.6c-0.4,0.4-0.6,0.9-0.6,1.4c0,0.5,0.2,1,0.6,1.4c0.4,0.4,0.9,0.6,1.4,0.6
				c0.5,0,1-0.2,1.4-0.6c0.4-0.4,0.6-0.9,0.6-1.4c0-0.5-0.2-1-0.6-1.4C79.3,30.9,78.8,30.7,78.3,30.7L78.3,30.7z M78.3,30.7"/>
			<g>
				<defs>
					<rect id="SVGID_11_" x="2.8" y="14.6" width="100" height="79.2"/>
				</defs>
				<clipPath id="SVGID_2_">
					<use xlink:href="#SVGID_11_"  style="overflow:visible;"/>
				</clipPath>
				<path class="st21" d="M90.3,34.6c0.5,0,1-0.2,1.4-0.6c0.4-0.4,0.6-0.9,0.6-1.4c0-0.5-0.2-1-0.6-1.4c-0.4-0.4-0.9-0.6-1.4-0.6
					c-0.5,0-1,0.2-1.4,0.6c-0.4,0.4-0.6,0.9-0.6,1.4c0,0.5,0.2,1,0.6,1.4C89.3,34.4,89.8,34.6,90.3,34.6L90.3,34.6z M90.3,34.6"/>
				<path class="st21" d="M90.2,51c7.3-1.7,12.7-8.2,12.7-15.9c0-3.4-1.1-6.8-3.1-9.6c0.2-1,0.4-2,0.5-3c0.1-1.6,0.1-3.2-0.2-4.8
					c-0.2-1.1-0.8-2-1.8-2.6c-1-0.5-2.1-0.6-3.1-0.2c-2.2,0.9-4.2,2.3-5.9,3.9c-0.9-0.1-1.8-0.2-2.6-0.2h-4.3
					c-0.9,0-1.8,0.1-2.6,0.2c-1.7-1.7-3.7-3-5.9-3.9c-1-0.4-2.2-0.4-3.1,0.2c-1,0.5-1.6,1.5-1.8,2.6c-0.3,1.6-0.3,3.2-0.2,4.8
					c0.1,1,0.2,2,0.5,2.9c-0.7,1-1.4,2.1-1.8,3.3H39.4c-4,0-7.8,0.8-11.4,2.5c-1,0.5-1.4,1.6-0.9,2.6c0.3,0.7,1,1.1,1.8,1.1
					c0.3,0,0.6-0.1,0.8-0.2c3.1-1.4,6.3-2.1,9.7-2.1H66c-0.1,0.8-0.2,1.6-0.2,2.4c0,9,7.3,16.4,16.4,16.4H86
					c-1.4,5-4.8,9.3-9.4,11.8l-1-2.2c-0.5-1-1.6-1.4-2.6-0.9c-1,0.5-1.4,1.6-0.9,2.6L77.3,74c0.1,0.2,0.2,0.4,0.4,0.5l2.3,2.3
					c0.5,0.5,0.4,1.1,0.3,1.4c-0.1,0.2-0.4,0.8-1.2,0.8h-5.6c0,0-21.1-27.4-21.2-27.4c-2.9-3.6-7.3-5.9-12.2-5.9c-1.1,0-2,0.9-2,2
					c0,1.1,0.9,2,2,2c6.5,0,11.8,5.3,11.8,11.8c0,3.7-1.8,7.3-4.8,9.5c-0.7,0.5-1,1.4-0.7,2.2c0.3,0.8,1,1.3,1.9,1.3h3.1
					c3,0,5.5,2,6.3,4.7H39.4c-12.7,0-23.1-10.4-23.1-23.1c0-3.4,0.7-6.6,2.1-9.7c0.5-1,0-2.1-1-2.6c-1-0.5-2.1,0-2.6,1
					c-1.6,3.6-2.5,7.4-2.5,11.3c0,2.5,0.3,4.9,1,7.2C7.2,65.2,2.8,71.1,2.8,77.8c0,8.7,7.1,15.8,15.8,15.8h52.3c1.1,0,2-0.9,2-2
					c0-3.4-1.4-6.5-3.6-8.8h9.8c2.1,0,3.9-1.2,4.8-3.2c0.8-2,0.4-4.1-1.1-5.6l-2-2.1l-2.4-5.2C84.3,63.5,88.7,57.7,90.2,51L90.2,51z
					 M69.7,35.1c0-2.9,1-5.7,2.8-7.9c0.4-0.5,0.5-1.2,0.4-1.8c-0.3-1-0.5-2.1-0.6-3.1c-0.1-1.2-0.1-2.3,0.1-3.5
					c1.9,0.9,3.6,2.1,5,3.6c0.5,0.5,1.2,0.7,1.9,0.6c0.9-0.2,1.9-0.3,2.8-0.3h4.3c0.9,0,1.9,0.1,2.8,0.3c0.7,0.2,1.4-0.1,1.9-0.6
					c1.4-1.5,3.1-2.7,5-3.6c0.2,1.1,0.2,2.3,0.1,3.5c-0.1,1-0.2,1.9-0.5,2.9c-0.3,0.7-0.2,1.5,0.3,2c1.8,2.2,2.8,5,2.8,7.9
					c0,6.9-5.6,12.5-12.5,12.5h-4.3C75.3,47.5,69.7,41.9,69.7,35.1L69.7,35.1z M52.8,70.4c1.7-2.4,2.8-5.2,2.9-8.2l12.9,16.7h-6.9
					C60.9,74.5,57.3,71,52.8,70.4L52.8,70.4z M18.6,89.7c-6.5,0-11.9-5.3-11.9-11.9c0-5.1,3.3-9.6,7.9-11.2
					c4.2,9.5,13.7,16.2,24.7,16.2h20.7c4.2,0,7.7,2.9,8.6,6.9H18.6z M18.6,89.7"/>
			</g>
			<path class="st18" d="M21.7,40.1c0.5,0,1-0.2,1.4-0.6c0.4-0.4,0.6-0.9,0.6-1.4s-0.2-1-0.6-1.4c-0.4-0.4-0.9-0.6-1.4-0.6
				c-0.5,0-1,0.2-1.4,0.6c-0.4,0.4-0.6,0.9-0.6,1.4s0.2,1,0.6,1.4C20.7,39.8,21.2,40.1,21.7,40.1L21.7,40.1z M21.7,40.1"/>
		</g>
	</g>
</g>
<g id="Layer_8">
</g>
<g id="Layer_9">
</g>
<g id="Layer_10">
</g>
<g id="Layer_11">
</g>
</svg>
