<?xml version="1.0" encoding="utf-8"?>
<!-- Generator: Adobe Illustrator 22.1.0, SVG Export Plug-In . SVG Version: 6.00 Build 0)  -->
<svg version="1.1" xmlns="http://www.w3.org/2000/svg" xmlns:xlink="http://www.w3.org/1999/xlink" x="0px" y="0px"
	 viewBox="0 0 105 105" style="enable-background:new 0 0 105 105;" xml:space="preserve">
<style type="text/css">
	.st0{fill:#F15A24;}
	.st1{display:none;}
	.st2{display:inline;fill:#F15A24;}
	.st3{display:inline;}
	.st4{display:inline;fill:none;stroke:#000000;stroke-miterlimit:10;}
	.st5{fill:#FFFFFF;stroke:#000000;stroke-miterlimit:10;}
	.st6{display:inline;fill:#FFFFFF;stroke:#000000;stroke-miterlimit:10;}
	.st7{fill:none;stroke:#000000;stroke-miterlimit:10;}
	.st8{fill:#E76F51;}
	.st9{fill:#ED1E79;}
	.st10{stroke:#000000;stroke-miterlimit:10;}
	.st11{fill:#FFFFFF;}
	.st12{display:none;fill:url(#);}
	.st13{fill:none;stroke:#12100B;stroke-width:0.5;stroke-miterlimit:10;}
	.st14{fill:none;stroke:#13110C;stroke-width:0.5;stroke-linecap:round;stroke-miterlimit:10;}
	.st15{fill:#12100B;}
	.st16{fill:#2A9D8F;}
	.st17{display:none;fill:#264653;}
	.st18{fill:#F2F2F2;}
	.st19{fill:#F4A261;}
	.st20{display:inline;fill:#F2F2F2;}
	.st21{clip-path:url(#SVGID_2_);fill:#F2F2F2;}
	.st22{clip-path:url(#SVGID_4_);fill:#E76F51;}
	.st23{clip-path:url(#SVGID_6_);fill:#E76F51;}
	.st24{clip-path:url(#SVGID_8_);fill:#E76F51;}
	.st25{clip-path:url(#SVGID_10_);fill:#E76F51;}
	.st26{clip-path:url(#SVGID_12_);fill:#E76F51;}
	.st27{clip-path:url(#SVGID_14_);fill:#E76F51;}
	.st28{clip-path:url(#SVGID_16_);fill:#E76F51;}
	.st29{clip-path:url(#SVGID_18_);fill:#F2F2F2;}
	.st30{clip-path:url(#SVGID_20_);fill:#E76F51;}
	.st31{clip-path:url(#SVGID_22_);fill:#E76F51;}
	.st32{clip-path:url(#SVGID_24_);fill:#E76F51;}
	.st33{fill:#264653;}
</style>
<g id="Layer_2">
</g>
<g id="Layer_1">
</g>
<g id="Layer_3">
</g>
<g id="Layer_4">
</g>
<g id="Guides" class="st1">
</g>
<g id="Layer_5">
</g>
<g id="Layer_7">
	<g>
		<g>
			<g>
				<defs>
					<rect id="SVGID_9_" x="2.5" y="4.7" width="100" height="89.1"/>
				</defs>
				<clipPath id="SVGID_2_">
					<use xlink:href="#SVGID_9_"  style="overflow:visible;"/>
				</clipPath>
				<path style="clip-path:url(#SVGID_2_);fill:#E76F51;" d="M101,21.4c-1.2-1.4-3-2.2-4.8-2.2h-4.5c-2-3.5-5.7-5.7-9.8-5.7H81V6.7
					c0-1.1-0.9-2-2-2c-7.3,0-13.2,5.9-13.2,13.2V24c0,4.2-2.3,8.1-6.1,10l-6.4,3.3c-1,0.5-1.3,1.7-0.8,2.6c0.3,0.7,1,1.1,1.7,1.1
					c0.3,0,0.6-0.1,0.9-0.2l6.4-3.3c5.1-2.6,8.2-7.8,8.2-13.5v-6.1c0-4.5,3.2-8.2,7.3-9.1v6.6c0,1.1,0.9,2,2,2h2.9
					c3,0,5.6,1.8,6.8,4.5c0.3,0.7,1,1.2,1.8,1.2h5.7c0.7,0,1.4,0.3,1.8,0.9c0.5,0.5,0.7,1.3,0.5,2l-0.7,4.2
					c-0.5,2.7-2.7,4.6-5.4,4.6h-8.7c0,0,0,0-0.1,0c0,0,0,0-0.1,0c-1.1,0-2,0.9-2,2v9.6c0,6.9-1.3,13.6-4,20
					c-0.2,0.4-0.2,0.8-0.1,1.2l4.8,18.4c0.1,0.3,0.2,0.6,0.5,0.9l1.7,1.8c0.3,0.3,0.2,0.7,0.2,0.8c-0.1,0.2-0.3,0.5-0.7,0.5h-6.5
					L69.1,68v-9c0-1.1-0.9-2-2-2c-1.1,0-2,0.9-2,2v9.4c0,0.2,0,0.5,0.1,0.7l8,20.7h-6.9C65.5,83.7,60.2,79,53.8,79h-2.2l-0.9-5.2
					c-0.9-5.5-5.1-9.9-10.6-11L36.5,62c-1.1-0.2-2.1,0.5-2.3,1.5c-0.2,1.1,0.5,2.1,1.5,2.3l3.7,0.8c3.9,0.8,6.9,3.9,7.5,7.8l0.8,4.5
					h-12c-1.1,0-2,0.9-2,2c0,1.1,0.9,2,2,2h18.2c4.2,0,7.7,3,8.6,6.9H35.3c-9.8,0-17.7-7.9-17.7-17.7c0-7.3,4-14,10.6-17.3l11.4-5.9
					c1-0.5,1.3-1.7,0.8-2.6c-0.5-1-1.7-1.3-2.6-0.8l-11.4,5.9c-3.1,1.6-5.8,3.8-7.8,6.5c-0.2-1-0.3-2.1-0.3-3.1
					c0-5.5,3-10.5,7.7-13.2c1.3-0.7,1.9-2.2,1.5-3.6c-0.4-1.5-1.8-2.6-3.3-2.6c0,0,0,0,0,0c0,0,0,0,0,0c0,0,0,0,0,0
					c-11.7,0-21.3,9.6-21.6,21.4c-0.2,8.2,4.4,15.9,11.6,19.8c2,9.8,10.8,17.3,21.2,17.3H84c1.9,0,3.6-1.1,4.3-2.8
					c0.8-1.8,0.4-3.7-0.9-5.1L86,84.3l-4.5-17.3c2.7-6.7,4-13.7,4-20.9v-7.6h6.9c4.6,0,8.5-3.3,9.3-7.8l0.7-4.2
					C102.7,24.7,102.2,22.8,101,21.4L101,21.4z M6.4,56.7c0.2-9,7.1-16.5,15.7-17.5c-4.9,3.6-7.8,9.3-7.8,15.4
					c0,2.6,0.5,5.2,1.6,7.6c-1.3,2.9-2.1,6-2.2,9.3C9.1,68.1,6.3,62.6,6.4,56.7L6.4,56.7z M6.4,56.7"/>
			</g>
			<path class="st8" d="M83.9,25.4c0.4-0.4,0.6-0.9,0.6-1.4c0-0.5-0.2-1-0.6-1.4c-0.4-0.4-0.9-0.6-1.4-0.6c-0.5,0-1,0.2-1.4,0.6
				c-0.4,0.4-0.6,0.9-0.6,1.4c0,0.5,0.2,1,0.6,1.4c0.4,0.4,0.9,0.6,1.4,0.6C83,26,83.5,25.8,83.9,25.4L83.9,25.4z M83.9,25.4"/>
			<path class="st8" d="M46.4,45.1c0.5,0,1-0.2,1.4-0.6c0.4-0.4,0.6-0.9,0.6-1.4c0-0.5-0.2-1-0.6-1.4c-0.4-0.4-0.9-0.6-1.4-0.6
				c-0.5,0-1,0.2-1.4,0.6c-0.4,0.4-0.6,0.9-0.6,1.4c0,0.5,0.2,1,0.6,1.4C45.4,44.9,45.9,45.1,46.4,45.1L46.4,45.1z M46.4,45.1"/>
		</g>
	</g>
</g>
<g id="Layer_8">
</g>
<g id="Layer_9">
</g>
<g id="Layer_10">
</g>
<g id="Layer_11">
</g>
</svg>
