<?xml version="1.0" encoding="utf-8"?>
<!-- Generator: Adobe Illustrator 22.1.0, SVG Export Plug-In . SVG Version: 6.00 Build 0)  -->
<svg version="1.1" xmlns="http://www.w3.org/2000/svg" xmlns:xlink="http://www.w3.org/1999/xlink" x="0px" y="0px"
	 viewBox="0 0 105 105" style="enable-background:new 0 0 105 105;" xml:space="preserve">
<style type="text/css">
	.st0{fill:none;}
	.st1{fill:#868281;}
	.st2{fill:#F15A24;}
	.st3{display:none;}
	.st4{display:inline;fill:#F15A24;}
	.st5{display:inline;}
	.st6{display:inline;fill:none;stroke:#000000;stroke-miterlimit:10;}
	.st7{fill:#FFFFFF;stroke:#000000;stroke-miterlimit:10;}
	.st8{display:inline;fill:#FFFFFF;stroke:#000000;stroke-miterlimit:10;}
	.st9{fill:none;stroke:#000000;stroke-miterlimit:10;}
	.st10{fill:#E76F51;}
	.st11{fill:#ED1E79;}
	.st12{stroke:#000000;stroke-miterlimit:10;}
	.st13{fill:#FFFFFF;}
	.st14{display:none;fill:url(#SVGID_1_);}
	.st15{fill:none;stroke:#12100B;stroke-width:0.5;stroke-miterlimit:10;}
	.st16{fill:none;stroke:#13110C;stroke-width:0.5;stroke-linecap:round;stroke-miterlimit:10;}
	.st17{display:none;fill:url(#SVGID_2_);}
	.st18{fill:#12100B;}
	.st19{fill:#2A9D8F;}
	.st20{display:none;fill:#264653;}
	.st21{fill:#F2F2F2;}
	.st22{fill:#F4A261;}
	.st23{display:inline;fill:#F2F2F2;}
	.st24{clip-path:url(#SVGID_4_);fill:#F2F2F2;}
	.st25{clip-path:url(#SVGID_6_);fill:#E76F51;}
	.st26{clip-path:url(#SVGID_8_);fill:#E76F51;}
	.st27{clip-path:url(#SVGID_10_);fill:#E76F51;}
	.st28{clip-path:url(#SVGID_12_);fill:#E76F51;}
	.st29{clip-path:url(#SVGID_14_);fill:#E76F51;}
	.st30{clip-path:url(#SVGID_16_);fill:#F2F2F2;}
	.st31{clip-path:url(#SVGID_18_);fill:#E76F51;}
	.st32{clip-path:url(#SVGID_20_);fill:#F2F2F2;}
	.st33{clip-path:url(#SVGID_22_);fill:#E76F51;}
	.st34{clip-path:url(#SVGID_24_);fill:#E76F51;}
	.st35{clip-path:url(#SVGID_26_);fill:#E76F51;}
	.st36{fill:#264653;}
</style>
<pattern  x="186.4" y="-1261.2" width="6" height="6" patternUnits="userSpaceOnUse" id="Unnamed_Pattern" viewBox="0 -6 6 6" style="overflow:visible;">
	<g>
		<rect y="-6" class="st0" width="6" height="6"/>
		<rect y="-0.5" class="st1" width="0.5" height="0.5"/>
	</g>
</pattern>
<g id="Layer_2">
</g>
<g id="Layer_1">
</g>
<g id="Layer_3">
	<path class="st2" d="M959.4-1032.3v133.3H913l-3.7,0v-199.8C937-1098.9,959.4-1069.1,959.4-1032.3z"/>
	<g class="st3">
		<path class="st4" d="M1045.1-1161.2c-60.1,0-108.8,48.7-108.8,108.8c0,60.1,48.7,108.8,108.8,108.8s108.8-48.7,108.8-108.8
			C1153.9-1112.4,1105.2-1161.2,1045.1-1161.2z M1045.1-993.5c-32.5,0-58.8-26.3-58.8-58.8c0-32.5,26.3-58.8,58.8-58.8
			c32.5,0,58.8,26.3,58.8,58.8C1103.9-1019.8,1077.6-993.5,1045.1-993.5z"/>
		<path class="st4" d="M448.8-1152.4v150c0,27.6-22.4,50-50,50v-75h-50v25c0,27.6-22.4,50-50,50v-150c0-27.6,22.4-50,50-50v75h50
			v-25C398.8-1130,421.2-1152.4,448.8-1152.4z"/>
		<path class="st4" d="M952.2-952.2h-150c-1.1,0-2.2,0-3.2-0.1c-0.1,0-0.3,0-0.4,0v-200c27.6,0,50,22.4,50,50v100.1h53.6
			C929.8-1002.2,952.2-979.8,952.2-952.2z"/>
		<g class="st5">
			<path class="st2" d="M778.6-1152.3v150c0,27.6-22.4,50-50,50l-49.8-93.6v43.5c0,27.6-22.4,50-50,50h0v-150c0-27.6,22.4-50,50-50
				h0l49.7,93.6v-43.5C728.6-1130,751-1152.3,778.6-1152.3z"/>
		</g>
		<g class="st5">
			<path class="st2" d="M518.8-1027.4v25h90c0,27.6-22.4,50-50,50h-90v-150c0-27.6,22.4-50,50-50h90c0,27.6-22.4,50-50,50h-40v25h90
				c0,27.6-22.4,50-50,50H518.8z"/>
		</g>
	</g>
	<g class="st3">
		<path class="st6" d="M930.8-980.8c0,0,9.5,19.4,8.1,31.2c-1.5,9.4-9.4,12.9-9.4,12.9L917.4-971L930.8-980.8z"/>
		<g class="st5">
			<path class="st7" d="M952.2-1002.6c0,5.5-0.9,10.8-2.5,15.7c-1.1,3.3-2.5,6.4-4.2,9.3c-8.7,14.9-24.8,25-43.3,25h-100
				c-1.1,0-2.2,0-3.2-0.1c-0.1,0-0.3,0-0.4,0v-49.7c1.2-0.1,2.4-0.1,3.7-0.1H952.2z"/>
			<path d="M949.7-986.8c-14.5,0-18.8-15.8-18.8-15.8h21.3C952.2-1002.6,951.6-989.7,949.7-986.8z"/>
		</g>
		<path class="st8" d="M810.4-1002.5l35.8-136.2c0,0,34.8,102.9,1.5,136.2C814.1-1002.5,810.4-1002.5,810.4-1002.5z"/>
		<path class="st8" d="M798.5-1002.5l35.8-136.2c0,0,46.7,102.9,13.3,136.2C814.1-1002.5,798.5-1002.5,798.5-1002.5z"/>
		<path class="st5" d="M847.1-983.9L847.1-983.9c-3,0-5.4-2.4-5.4-5.4v0c0-3,2.4-5.4,5.4-5.4h0c3,0,5.4,2.4,5.4,5.4v0
			C852.5-986.3,850.1-983.9,847.1-983.9z"/>
		<path class="st5" d="M921.3-988.3L921.3-988.3c-0.6,0-1-0.4-1-1v0c0-0.6,0.4-1,1-1l0,0c0.6,0,1,0.4,1,1v0
			C922.3-988.8,921.8-988.3,921.3-988.3z"/>
		<path class="st5" d="M921.3-974.3L921.3-974.3c-0.6,0-1-0.4-1-1v0c0-0.6,0.4-1,1-1l0,0c0.6,0,1,0.4,1,1v0
			C922.3-974.8,921.8-974.3,921.3-974.3z"/>
		<path class="st5" d="M916.3-981.3L916.3-981.3c-0.6,0-1-0.4-1-1v0c0-0.6,0.4-1,1-1l0,0c0.6,0,1,0.4,1,1v0
			C917.3-981.8,916.8-981.3,916.3-981.3z"/>
		<path class="st5" d="M926.3-981.3L926.3-981.3c-0.6,0-1-0.4-1-1v0c0-0.6,0.4-1,1-1l0,0c0.6,0,1,0.4,1,1v0
			C927.3-981.8,926.8-981.3,926.3-981.3z"/>
	</g>
	<path class="st9" d="M448.8-1152.4v150c0,27.6-22.4,50-50,50v-75h-50v25c0,27.6-22.4,50-50,50v-150c0-27.6,22.4-50,50-50v75h50v-25
		C398.8-1130,421.2-1152.4,448.8-1152.4z"/>
	<path d="M734.8-820"/>
	<path class="st9" d="M1144.7-844.9v150c0,27.6-22.4,50-50,50v-75h-50v25c0,27.6-22.4,50-50,50v-150c0-27.6,22.4-50,50-50v75h50v-25
		C1094.7-822.5,1117.1-844.9,1144.7-844.9z"/>
	<g>
		<g>
			<g>
				<path class="st10" d="M-169.1-706.3c-31.2,0-56.5,24.9-56.5,55.7s25.3,55.7,56.5,55.7s56.5-24.9,56.5-55.7
					S-138-706.3-169.1-706.3z M-169.1-620.5c-16.9,0-30.5-13.5-30.5-30.1c0-16.6,13.7-30.1,30.5-30.1s30.5,13.5,30.5,30.1
					C-138.6-634-152.3-620.5-169.1-620.5z"/>
				<path class="st10" d="M-213.2-594.9H-294c-0.6,0-1.2,0-1.7-0.1c-0.1,0-0.1,0-0.2,0v-102.3c14.9,0,27,11.4,27,25.6v51.2h28.9
					C-225.2-620.5-213.2-609.1-213.2-594.9z"/>
				<g>
					<path class="st10" d="M-306-697.3v76.7c0,14.1-12.1,25.6-27,25.6l-26.8-47.9v22.3c0,14.1-12.1,25.6-26.9,25.6h0v-76.7
						c0-14.1,12.1-25.6,27-25.6h0l26.8,47.9v-22.2C-332.9-685.9-320.9-697.3-306-697.3z"/>
				</g>
				<g>
					<path class="st10" d="M-445.2-633.4v12.8h48.5c0,14.1-12.1,25.6-27,25.6h-48.5v-76.7c0-14.1,12.1-25.6,27-25.6h48.5
						c0,14.1-12.1,25.6-27,25.6h-21.6v12.8h48.5c0,14.1-12.1,25.6-27,25.6H-445.2z"/>
				</g>
			</g>
		</g>
		<path class="st11" d="M-439.6-720L-439.6-720c-4.2,0-7.7-3.5-7.7-7.7v-22.5h15.4v22.5C-431.9-723.5-435.4-720-439.6-720z"/>
		<path class="st10" d="M-402.1-795.1c0,27.6-22.4,50-50,50h-30v150c-9.1,0-17.6-2.4-25-6.7c-14.9-8.7-25-24.8-25-43.3v-25h-50v75
			c-9.1,0-17.6-2.4-25-6.7c-14.9-8.6-25-24.8-25-43.3v-150c9.1,0,17.6,2.4,25,6.7c3.8,2.2,7.3,4.9,10.4,7.9
			c9.1,9,14.6,21.5,14.6,35.4v25h50v-127.4c13.3,0,24,10.7,24,24v28.4H-402.1z"/>
		<path class="st12" d="M-402.1-795h-15.5c0,0,0.5,13.1,13.7,13.1C-402.8-786.7-402.1-787.3-402.1-795z"/>
		<path class="st9" d="M-511.9-776.2c7.3-7.3,15.1-7.3,22.4,0"/>
		<g>
			<path d="M-439.6-782.7L-439.6-782.7c-0.6,0-1-0.4-1-1l0,0c0-0.6,0.4-1,1-1l0,0c0.6,0,1,0.4,1,1l0,0
				C-438.6-783.1-439.1-782.7-439.6-782.7z"/>
			<path d="M-439.6-768.7L-439.6-768.7c-0.6,0-1-0.4-1-1l0,0c0-0.6,0.4-1,1-1l0,0c0.6,0,1,0.4,1,1l0,0
				C-438.6-769.1-439.1-768.7-439.6-768.7z"/>
			<path d="M-444.6-775.7L-444.6-775.7c-0.6,0-1-0.4-1-1l0,0c0-0.6,0.4-1,1-1l0,0c0.6,0,1,0.4,1,1l0,0
				C-443.6-776.1-444.1-775.7-444.6-775.7z"/>
			<path d="M-434.6-775.7L-434.6-775.7c-0.6,0-1-0.4-1-1l0,0c0-0.6,0.4-1,1-1l0,0c0.6,0,1,0.4,1,1l0,0
				C-433.6-776.1-434.1-775.7-434.6-775.7z"/>
		</g>
	</g>
</g>
<g id="Layer_4">
	<rect x="1780.7" y="-1261.2" class="st13" width="1919.1" height="5098.6"/>
	<g>
		<g>
			<pattern  id="SVGID_1_" xlink:href="#Unnamed_Pattern" patternTransform="matrix(3.6329 0 0 -3.6329 20721.9141 30544.0137)">
			</pattern>
			<rect x="1780.7" y="-1144.9" class="st14" width="1920" height="2368.9"/>
			<path class="st15" d="M3699.8-1195.8v50.9H1781.6v-50.9v-54.5c0-4,4.9-10.9,10.9-10.9h1896.4c6,0,10.9,6.9,10.9,10.9V-1195.8z"/>
			<circle class="st15" cx="1817.9" cy="-1224.8" r="10.9"/>
			<circle class="st15" cx="1857.1" cy="-1224.8" r="10.9"/>
			<circle class="st15" cx="1896.4" cy="-1224.8" r="10.9"/>
			<path class="st15" d="M3340.1-1185.8c0,3.7-3,6.6-6.6,6.6H2147.9c-3.7,0-6.6-3-6.6-6.6v-34.4c0-3.7,3-6.6,6.6-6.6h1185.6
				c3.7,0,6.6,3,6.6,6.6V-1185.8z"/>
			<line class="st15" x1="1781.6" y1="-1144.9" x2="1781.6" y2="1225.8"/>
			<line class="st15" x1="3699.8" y1="-1144.9" x2="3699.8" y2="1225.8"/>
			<polyline class="st16" points="1987.9,-1203 2001.6,-1217.6 1987.1,-1203 2001.6,-1188.5 			"/>
			<polyline class="st16" points="2072.5,-1203 2058.8,-1188.5 2073.3,-1203 2058.8,-1217.6 			"/>
		</g>
		<g>
			<pattern  id="SVGID_2_" xlink:href="#Unnamed_Pattern" patternTransform="matrix(3.6329 0 0 -3.6329 20721.9141 30609.2734)">
			</pattern>
			<rect x="1780.7" y="1209.1" class="st17" width="1920" height="2368.9"/>
			<rect x="1781.6" y="3829.1" class="st18" width="1918.2" height="1.8"/>
			<line class="st15" x1="1781.6" y1="1209.1" x2="1781.6" y2="3830.9"/>
			<line class="st15" x1="3699.8" y1="1209.1" x2="3699.8" y2="3830.9"/>
		</g>
	</g>
</g>
<g id="Guides" class="st3">
</g>
<g id="Layer_5">
	<rect x="1780.7" y="-1144.9" class="st19" width="1100" height="1084.9"/>
	<rect x="1780.7" y="-1145" class="st20" width="1920" height="150"/>
	<g>
		<g>
			<g>
				<path class="st10" d="M2194.6-996.2c-14.4,0-26.1,11.5-26.1,25.7c0,14.2,11.7,25.7,26.1,25.7c14.4,0,26.1-11.5,26.1-25.7
					C2220.7-984.6,2209-996.2,2194.6-996.2z M2194.6-956.5c-7.8,0-14.1-6.2-14.1-13.9c0-7.7,6.3-13.9,14.1-13.9
					c7.8,0,14.1,6.2,14.1,13.9C2208.7-962.7,2202.4-956.5,2194.6-956.5z"/>
				<path class="st10" d="M2174.2-944.7h-37.4c-0.3,0-0.5,0-0.8,0c0,0-0.1,0-0.1,0V-992c6.9,0,12.5,5.3,12.5,11.8v23.7h13.4
					C2168.7-956.5,2174.2-951.3,2174.2-944.7z"/>
				<g>
					<path class="st10" d="M2131.4-992v35.5c0,6.5-5.6,11.8-12.5,11.8l-12.4-22.1v10.3c0,6.5-5.6,11.8-12.4,11.8h0v-35.5
						c0-6.5,5.6-11.8,12.5-11.8h0l12.4,22.1v-10.3C2118.9-986.7,2124.5-992,2131.4-992z"/>
				</g>
				<g>
					<path class="st10" d="M2067-962.5v5.9h22.4c0,6.5-5.6,11.8-12.5,11.8h-22.4v-35.5c0-6.5,5.6-11.8,12.5-11.8h22.4
						c0,6.5-5.6,11.8-12.5,11.8h-10v5.9h22.4c0,6.5-5.6,11.8-12.5,11.8H2067z"/>
				</g>
			</g>
		</g>
		<path class="st11" d="M2069.6-1002.5L2069.6-1002.5c-2,0-3.6-1.6-3.6-3.6v-10.4h7.1v10.4
			C2073.2-1004.1,2071.6-1002.5,2069.6-1002.5z"/>
		<path class="st10" d="M2086.9-1037.2c0,12.8-10.3,23.1-23.1,23.1H2050v69.3c-4.2,0-8.2-1.1-11.6-3.1c-6.9-4-11.6-11.5-11.6-20
			v-11.6h-23.1v34.7c-4.2,0-8.1-1.1-11.5-3.1c-6.9-4-11.6-11.5-11.6-20v-69.3c4.2,0,8.1,1.1,11.5,3.1c1.8,1,3.4,2.3,4.8,3.7
			c4.2,4.2,6.8,10,6.8,16.3v11.6h23.1v-58.8c6.1,0,11.1,5,11.1,11.1v13.1H2086.9z"/>
		<path class="st12" d="M2086.9-1037.2h-7.1c0,0,0.2,6.1,6.3,6.1C2086.6-1033.3,2086.9-1033.6,2086.9-1037.2z"/>
		<path class="st9" d="M2036.2-1028.5c3.4-3.4,7-3.4,10.4,0"/>
		<g>
			<path d="M2069.6-1031.4L2069.6-1031.4c-0.3,0-0.5-0.2-0.5-0.5l0,0c0-0.3,0.2-0.5,0.5-0.5l0,0c0.3,0,0.5,0.2,0.5,0.5l0,0
				C2070.1-1031.7,2069.9-1031.4,2069.6-1031.4z"/>
			<path d="M2069.6-1025L2069.6-1025c-0.3,0-0.5-0.2-0.5-0.5l0,0c0-0.3,0.2-0.5,0.5-0.5l0,0c0.3,0,0.5,0.2,0.5,0.5l0,0
				C2070.1-1025.2,2069.9-1025,2069.6-1025z"/>
			<path d="M2067.3-1028.2L2067.3-1028.2c-0.3,0-0.5-0.2-0.5-0.5l0,0c0-0.3,0.2-0.5,0.5-0.5l0,0c0.3,0,0.5,0.2,0.5,0.5l0,0
				C2067.8-1028.4,2067.6-1028.2,2067.3-1028.2z"/>
			<path d="M2071.9-1028.2L2071.9-1028.2c-0.3,0-0.5-0.2-0.5-0.5l0,0c0-0.3,0.2-0.5,0.5-0.5l0,0c0.3,0,0.5,0.2,0.5,0.5l0,0
				C2072.4-1028.4,2072.2-1028.2,2071.9-1028.2z"/>
		</g>
		<path class="st19" d="M2026.9-1013.2c0,0,7,9.2,23.1,9.2c0,2.4,0,2.8,0,2.8s-16.5-1.2-23.1-7.8
			C2026.9-1010.2,2026.9-1013.2,2026.9-1013.2"/>
	</g>
	<text transform="matrix(1 0 0 1 1980.6757 -665.031)"><tspan x="0" y="0" class="st21" style="font-family:'Poppins-SemiBold'; font-size:170px;">Henlo</tspan><tspan x="0" y="150" class="st21" style="font-family:'Poppins-SemiBold'; font-size:170px;">Hooman!</tspan></text>
	<text transform="matrix(1 0 0 1 1980.6757 -395.0309)"><tspan x="0" y="0" class="st21" style="font-family:'Poppins-Light'; font-size:60px;">It takes 7 Seconds</tspan><tspan x="0" y="72" class="st21" style="font-family:'Poppins-Light'; font-size:60px;">to make an impression</tspan><tspan x="0" y="144" class="st21" style="font-family:'Poppins-Light'; font-size:60px;">Henlo will do it in 5.</tspan></text>
	<g>
		<rect x="2880.7" y="-1144.9" class="st21" width="820" height="1084.9"/>
		<line class="st9" x1="2880.7" y1="-1144.9" x2="3700.7" y2="-60"/>
		<line class="st9" x1="3700.7" y1="-1144.9" x2="2880.7" y2="-60"/>
	</g>
	<text transform="matrix(1 0 0 1 3309.0386 -962.4914)" class="st10" style="font-family:'Poppins-Light'; font-size:60px;">Where</text>
	<text transform="matrix(1 0 0 1 3029.6521 -962.4914)" class="st10" style="font-family:'Poppins-Light'; font-size:60px;">Why</text>
	<text transform="matrix(1 0 0 1 2700.4915 -962.4914)" class="st10" style="font-family:'Poppins-Light'; font-size:60px;">What</text>
</g>
<g id="Layer_7">
	<rect x="1780.7" y="-60" class="st22" width="1920" height="935"/>
	<text transform="matrix(1 0 0 1 2380.4412 89.9685)" class="st21" style="font-family:'Poppins-SemiBold'; font-size:120px;">What we do</text>
	<g class="st3">
		<rect x="2383.1" y="140" class="st23" width="100" height="100"/>
		<rect x="2587.7" y="140" class="st23" width="100" height="100"/>
		<rect x="2792.2" y="140" class="st23" width="100" height="100"/>
		<rect x="2996.8" y="140" class="st23" width="100" height="100"/>
	</g>
	<g>
		<g>
			<g>
				<defs>
					<rect id="SVGID_3_" x="2383.1" y="145.4" width="100" height="89.1"/>
				</defs>
				<clipPath id="SVGID_4_">
					<use xlink:href="#SVGID_3_"  style="overflow:visible;"/>
				</clipPath>
				<path class="st24" d="M2481.6,162.2c-1.2-1.4-3-2.2-4.8-2.2h-4.5c-2-3.5-5.7-5.7-9.8-5.7h-0.9v-6.8c0-1.1-0.9-2-2-2
					c-7.3,0-13.2,5.9-13.2,13.2v6.1c0,4.2-2.3,8.1-6.1,10l-6.4,3.3c-1,0.5-1.3,1.7-0.8,2.6c0.3,0.7,1,1.1,1.7,1.1
					c0.3,0,0.6-0.1,0.9-0.2l6.4-3.3c5.1-2.6,8.2-7.8,8.2-13.5v-6.1c0-4.5,3.2-8.2,7.3-9.1v6.6c0,1.1,0.9,2,2,2h2.9
					c3,0,5.6,1.8,6.8,4.5c0.3,0.7,1,1.2,1.8,1.2h5.7c0.7,0,1.4,0.3,1.8,0.9c0.5,0.5,0.7,1.3,0.5,2l-0.7,4.2
					c-0.5,2.7-2.7,4.6-5.4,4.6h-8.7c0,0,0,0-0.1,0c0,0,0,0-0.1,0c-1.1,0-2,0.9-2,2v9.6c0,6.9-1.3,13.6-4,20
					c-0.2,0.4-0.2,0.8-0.1,1.2l4.8,18.4c0.1,0.3,0.2,0.6,0.5,0.9l1.7,1.8c0.3,0.3,0.2,0.7,0.2,0.8c-0.1,0.2-0.3,0.5-0.7,0.5h-6.5
					l-8.4-21.7v-9c0-1.1-0.9-2-2-2c-1.1,0-2,0.9-2,2v9.4c0,0.2,0,0.5,0.1,0.7l8,20.7h-6.9c-0.9-6.1-6.2-10.8-12.6-10.8h-2.2
					l-0.9-5.2c-0.9-5.5-5.1-9.9-10.6-11l-3.7-0.8c-1.1-0.2-2.1,0.5-2.3,1.5s0.5,2.1,1.5,2.3l3.7,0.8c3.9,0.8,6.9,3.9,7.5,7.8
					l0.8,4.5h-12c-1.1,0-2,0.9-2,2c0,1.1,0.9,2,2,2h18.2c4.2,0,7.7,3,8.6,6.9h-27.2c-9.8,0-17.7-7.9-17.7-17.7c0-7.3,4-14,10.6-17.3
					l11.4-5.9c1-0.5,1.3-1.7,0.8-2.6c-0.5-1-1.7-1.3-2.6-0.8l-11.4,5.9c-3.1,1.6-5.8,3.8-7.8,6.5c-0.2-1-0.3-2.1-0.3-3.1
					c0-5.5,3-10.5,7.7-13.2c1.3-0.7,1.9-2.2,1.5-3.6c-0.4-1.5-1.8-2.6-3.3-2.6c0,0,0,0,0,0c0,0,0,0,0,0c0,0,0,0,0,0
					c-11.7,0-21.3,9.6-21.6,21.4c-0.2,8.2,4.4,15.9,11.6,19.8c2,9.8,10.8,17.3,21.2,17.3h48.7c1.9,0,3.6-1.1,4.3-2.8
					c0.8-1.8,0.4-3.7-0.9-5.1l-1.4-1.4l-4.5-17.3c2.7-6.7,4-13.7,4-20.9v-7.6h6.9c4.6,0,8.5-3.3,9.3-7.8l0.7-4.2
					C2483.3,165.5,2482.8,163.6,2481.6,162.2L2481.6,162.2z M2387,197.5c0.2-9,7.1-16.5,15.7-17.5c-4.9,3.6-7.8,9.3-7.8,15.4
					c0,2.6,0.5,5.2,1.6,7.6c-1.3,2.9-2.1,6-2.2,9.3C2389.7,208.9,2386.9,203.4,2387,197.5L2387,197.5z M2387,197.5"/>
			</g>
			<path class="st21" d="M2464.5,166.2c0.4-0.4,0.6-0.9,0.6-1.4s-0.2-1-0.6-1.4c-0.4-0.4-0.9-0.6-1.4-0.6c-0.5,0-1,0.2-1.4,0.6
				c-0.4,0.4-0.6,0.9-0.6,1.4s0.2,1,0.6,1.4c0.4,0.4,0.9,0.6,1.4,0.6S2464.1,166.5,2464.5,166.2L2464.5,166.2z M2464.5,166.2"/>
			<path class="st21" d="M2427,185.8c0.5,0,1-0.2,1.4-0.6c0.4-0.4,0.6-0.9,0.6-1.4c0-0.5-0.2-1-0.6-1.4c-0.4-0.4-0.9-0.6-1.4-0.6
				c-0.5,0-1,0.2-1.4,0.6c-0.4,0.4-0.6,0.9-0.6,1.4c0,0.5,0.2,1,0.6,1.4C2426,185.6,2426.5,185.8,2427,185.8L2427,185.8z
				 M2427,185.8"/>
		</g>
		<g>
			<path class="st10" d="M2672.1,179.4c-0.4-0.8-1.2-1.3-2-1.3h-1.8c-0.9,0-1.7,0.5-2,1.3c-0.4,0.8-0.2,1.7,0.3,2.4l0.9,1.1
				c0.4,0.5,1.1,0.8,1.7,0.8c0.7,0,1.3-0.3,1.7-0.8l0.9-1.1C2672.3,181.1,2672.4,180.2,2672.1,179.4L2672.1,179.4z M2672.1,179.4"/>
			<path class="st10" d="M2663.1,171.5c-0.5,0-1,0.2-1.4,0.6c-0.4,0.4-0.6,0.9-0.6,1.4c0,0.5,0.2,1,0.6,1.4c0.4,0.4,0.9,0.6,1.4,0.6
				c0.5,0,1-0.2,1.4-0.6c0.4-0.4,0.6-0.9,0.6-1.4c0-0.5-0.2-1-0.6-1.4C2664.1,171.7,2663.6,171.5,2663.1,171.5L2663.1,171.5z
				 M2663.1,171.5"/>
			<g>
				<defs>
					<rect id="SVGID_5_" x="2587.7" y="155.3" width="100" height="79.2"/>
				</defs>
				<clipPath id="SVGID_6_">
					<use xlink:href="#SVGID_5_"  style="overflow:visible;"/>
				</clipPath>
				<path class="st25" d="M2675.2,175.4c0.5,0,1-0.2,1.4-0.6c0.4-0.4,0.6-0.9,0.6-1.4c0-0.5-0.2-1-0.6-1.4c-0.4-0.4-0.9-0.6-1.4-0.6
					c-0.5,0-1,0.2-1.4,0.6c-0.4,0.4-0.6,0.9-0.6,1.4c0,0.5,0.2,1,0.6,1.4C2674.1,175.2,2674.6,175.4,2675.2,175.4L2675.2,175.4z
					 M2675.2,175.4"/>
				<path class="st25" d="M2675,191.8c7.3-1.7,12.7-8.2,12.7-15.9c0-3.4-1.1-6.8-3.1-9.6c0.2-1,0.4-2,0.5-3c0.1-1.6,0.1-3.2-0.2-4.8
					c-0.2-1.1-0.8-2-1.8-2.6c-1-0.5-2.1-0.6-3.1-0.2c-2.2,0.9-4.2,2.3-5.9,3.9c-0.9-0.1-1.8-0.2-2.6-0.2h-4.3
					c-0.9,0-1.8,0.1-2.6,0.2c-1.7-1.7-3.7-3-5.9-3.9c-1-0.4-2.2-0.4-3.1,0.2c-1,0.5-1.6,1.5-1.8,2.6c-0.3,1.6-0.3,3.2-0.2,4.8
					c0.1,1,0.2,2,0.5,2.9c-0.7,1-1.4,2.1-1.8,3.3h-27.6c-4,0-7.8,0.8-11.4,2.5c-1,0.5-1.4,1.6-0.9,2.6c0.3,0.7,1,1.1,1.8,1.1
					c0.3,0,0.6-0.1,0.8-0.2c3.1-1.4,6.3-2.1,9.7-2.1h26.5c-0.1,0.8-0.2,1.6-0.2,2.4c0,9,7.3,16.4,16.4,16.4h3.9
					c-1.4,5-4.8,9.3-9.4,11.8l-1-2.2c-0.5-1-1.6-1.4-2.6-0.9c-1,0.5-1.4,1.6-0.9,2.6l5.3,11.3c0.1,0.2,0.2,0.4,0.4,0.5l2.3,2.3
					c0.5,0.5,0.4,1.1,0.3,1.4c-0.1,0.2-0.4,0.8-1.2,0.8h-5.6c0,0-21.1-27.4-21.2-27.4c-2.9-3.6-7.3-5.9-12.2-5.9c-1.1,0-2,0.9-2,2
					c0,1.1,0.9,2,2,2c6.5,0,11.8,5.3,11.8,11.8c0,3.7-1.8,7.3-4.8,9.5c-0.7,0.5-1,1.4-0.7,2.2c0.3,0.8,1,1.3,1.9,1.3h3.1
					c3,0,5.5,2,6.3,4.7h-18.2c-12.7,0-23.1-10.4-23.1-23.1c0-3.4,0.7-6.6,2.1-9.7c0.5-1,0-2.1-1-2.6c-1-0.5-2.1,0-2.6,1
					c-1.6,3.6-2.5,7.4-2.5,11.3c0,2.5,0.3,4.9,1,7.2c-6.2,2.2-10.5,8.1-10.5,14.9c0,8.7,7.1,15.8,15.8,15.8h52.3c1.1,0,2-0.9,2-2
					c0-3.4-1.4-6.5-3.6-8.8h9.8c2.1,0,3.9-1.2,4.8-3.2c0.8-2,0.4-4.1-1.1-5.6l-2-2.1l-2.4-5.2C2669.2,204.3,2673.5,198.5,2675,191.8
					L2675,191.8z M2654.5,175.8c0-2.9,1-5.7,2.8-7.9c0.4-0.5,0.5-1.2,0.4-1.8c-0.3-1-0.5-2.1-0.6-3.1c-0.1-1.2-0.1-2.3,0.1-3.5
					c1.9,0.9,3.6,2.1,5,3.6c0.5,0.5,1.2,0.7,1.9,0.6c0.9-0.2,1.9-0.3,2.8-0.3h4.3c0.9,0,1.9,0.1,2.8,0.3c0.7,0.2,1.4-0.1,1.9-0.6
					c1.4-1.5,3.1-2.7,5-3.6c0.2,1.1,0.2,2.3,0.1,3.5c-0.1,1-0.2,1.9-0.5,2.9c-0.3,0.7-0.2,1.5,0.3,2c1.8,2.2,2.8,5,2.8,7.9
					c0,6.9-5.6,12.5-12.5,12.5h-4.3C2660.1,188.3,2654.5,182.7,2654.5,175.8L2654.5,175.8z M2637.6,211.2c1.7-2.4,2.8-5.2,2.9-8.2
					l12.9,16.7h-6.9C2645.7,215.3,2642.1,211.8,2637.6,211.2L2637.6,211.2z M2603.4,230.5c-6.5,0-11.9-5.3-11.9-11.9
					c0-5.1,3.3-9.6,7.9-11.2c4.2,9.5,13.7,16.2,24.7,16.2h20.7c4.2,0,7.7,2.9,8.6,6.9H2603.4z M2603.4,230.5"/>
			</g>
			<path class="st10" d="M2606.5,180.8c0.5,0,1-0.2,1.4-0.6c0.4-0.4,0.6-0.9,0.6-1.4c0-0.5-0.2-1-0.6-1.4c-0.4-0.4-0.9-0.6-1.4-0.6
				c-0.5,0-1,0.2-1.4,0.6c-0.4,0.4-0.6,0.9-0.6,1.4c0,0.5,0.2,1,0.6,1.4C2605.5,180.6,2606,180.8,2606.5,180.8L2606.5,180.8z
				 M2606.5,180.8"/>
		</g>
		<g>
			<g>
				<defs>
					<rect id="SVGID_7_" x="2996.8" y="157.7" width="100" height="64.6"/>
				</defs>
				<clipPath id="SVGID_8_">
					<use xlink:href="#SVGID_7_"  style="overflow:visible;"/>
				</clipPath>
				<path class="st26" d="M3083.6,185.9c-0.5,0-1,0.2-1.4,0.6c-0.4,0.4-0.6,0.9-0.6,1.4c0,0.5,0.2,1,0.6,1.4
					c0.4,0.4,0.9,0.6,1.4,0.6c0.5,0,1-0.2,1.4-0.6c0.4-0.4,0.6-0.9,0.6-1.4c0-0.5-0.2-1-0.6-1.4
					C3084.6,186.1,3084.1,185.9,3083.6,185.9L3083.6,185.9z M3083.6,185.9"/>
				<path class="st26" d="M3096.8,190c0-3.3-1.3-6.5-3.6-8.8c-4.5-4.6-9.8-8.1-15.6-10.4c1.3-3.9,0-8.2-3.4-10.8
					c-2.1-1.6-4.7-2.3-7.3-1.9c-2.6,0.3-4.9,1.7-6.5,3.8c-1.3,1.7-2,3.7-2,5.8c-2.1,0.1-4.1,0.3-6.1,0.7c-0.7-3.8-3.8-6.8-7.8-7.3
					c-5-0.7-9.7,2.8-10.4,7.8c-0.3,2.2,0.2,4.3,1.3,6.2c-2.6,1.7-5,3.6-7.2,5.8c-0.8,0.8-2.2,0.8-3,0l-1.7-1.7
					c-3.5-3.5-8.2-5.1-13.1-4.4c-1.1,0.1-1.8,1.1-1.7,2.2c0.1,1.1,1.1,1.8,2.2,1.7c2.7-0.3,5.3,0.2,7.6,1.6c1.6,3.1,2.4,6.5,2.4,10
					c0,3.5-0.8,6.9-2.4,10c-1.8,1.1-3.9,1.7-6,1.7c-3.1,0-6.1-1.2-8.3-3.4c-2.6-2.6-3.8-6.2-3.3-9.8c0.1-1.1-0.6-2-1.7-2.2
					c-1.1-0.1-2,0.6-2.2,1.7c-0.6,4.9,1,9.6,4.4,13.1c2.9,3,6.9,4.6,11,4.6c4.2,0,8.1-1.6,11-4.6l1.7-1.7c0.8-0.8,2.2-0.8,3,0
					c2.2,2.2,4.7,4.1,7.2,5.8c-1.1,1.8-1.6,4-1.3,6.2c0.6,4.6,4.6,7.9,9.1,7.9c0.4,0,0.9,0,1.3-0.1c4-0.6,7-3.5,7.8-7.3
					c2,0.4,4,0.6,6.1,0.7c0,2.1,0.7,4.1,2,5.8c1.6,2.1,3.9,3.4,6.5,3.8c0.4,0.1,0.9,0.1,1.3,0.1c2.1,0,4.2-0.7,6-2
					c3.4-2.6,4.7-6.9,3.4-10.8c5.8-2.3,11.1-5.8,15.6-10.4C3095.5,196.4,3096.8,193.3,3096.8,190L3096.8,190z M3060.4,208.6
					c-2.6,0-5.1-0.2-7.6-0.7c0.8-2.5,1.5-5.1,2-7.7l0.3,0.3c0.4,0.4,0.9,0.6,1.4,0.6c0.5,0,1-0.2,1.4-0.6l6.2-6.2
					c0.7,4.8,2.5,9.3,5.2,13.3C3066.4,208.3,3063.4,208.6,3060.4,208.6L3060.4,208.6z M3031.8,182.6c2-1.8,4.1-3.5,6.4-4.9
					c2.5,8,2.5,16.6,0,24.6c-2.3-1.4-4.4-3-6.4-4.9c0.5-2.4,0.8-4.9,0.8-7.4C3032.6,187.5,3032.4,185,3031.8,182.6L3031.8,182.6z
					 M3041.7,175.7c2.4-1.2,4.8-2.1,7.4-2.8c1.2,3.5,2,7.1,2.4,10.8c-2.2,3.9-2.2,8.7,0,12.5c-0.4,3.7-1.3,7.3-2.4,10.8
					c-2.5-0.7-5-1.7-7.4-2.8C3044.8,195,3044.8,185,3041.7,175.7L3041.7,175.7z M3060.4,171.3c3,0,6,0.3,8.8,0.9
					c-2.7,4-4.5,8.5-5.2,13.3l-6.2-6.2c-0.8-0.8-2-0.8-2.8,0l-0.3,0.3c-0.5-2.6-1.1-5.2-2-7.7
					C3055.4,171.6,3057.9,171.3,3060.4,171.3L3060.4,171.3z M3056.4,183.7l0.2-0.2l6.4,6.4l-6.4,6.4l-0.2-0.2
					C3052.9,192.8,3052.9,187.2,3056.4,183.7L3056.4,183.7z M3073.3,206.6c-3.6-4.8-5.6-10.6-5.6-16.6c0,0,0,0,0,0
					c0-6,2-11.9,5.6-16.6c1.3,0.4,2.6,0.9,3.9,1.5c-3.6,4.2-5.6,9.6-5.6,15.2c0,5.6,2,11,5.6,15.2
					C3075.9,205.7,3074.6,206.2,3073.3,206.6L3073.3,206.6z M3067.4,161.8c1.6-0.2,3.1,0.2,4.4,1.2c2,1.5,2.8,4.1,2.1,6.4
					c-3.7-1.1-7.6-1.8-11.6-1.9c0-1.2,0.5-2.4,1.2-3.4C3064.5,162.8,3065.9,162,3067.4,161.8L3067.4,161.8z M3038,169.2
					c0.4-2.9,3.1-4.9,6-4.5c2.3,0.3,4.1,2.1,4.5,4.3c-3.4,0.9-6.6,2.2-9.7,3.8C3038.1,171.8,3037.8,170.5,3038,169.2L3038,169.2z
					 M3024.3,195.3c0.4-1.8,0.6-3.5,0.6-5.3c0-1.8-0.2-3.6-0.6-5.3c1.3,0.6,2.7,0.7,4.1,0.3c0.3,1.7,0.4,3.3,0.4,5
					c0,1.7-0.1,3.4-0.4,5C3027,194.6,3025.5,194.7,3024.3,195.3L3024.3,195.3z M3044,215.3c-2.9,0.4-5.6-1.6-6-4.5
					c-0.2-1.3,0.1-2.6,0.8-3.6c3.1,1.6,6.3,2.9,9.7,3.8C3048.1,213.2,3046.3,214.9,3044,215.3L3044,215.3z M3071.8,216.9
					c-1.3,1-2.8,1.4-4.4,1.2c-1.6-0.2-3-1-3.9-2.3c-0.8-1-1.2-2.2-1.2-3.4c4-0.2,7.9-0.8,11.6-1.9
					C3074.6,212.9,3073.8,215.4,3071.8,216.9L3071.8,216.9z M3090.4,196.1c-2.9,2.9-6.1,5.4-9.6,7.3c-3.4-3.6-5.3-8.4-5.3-13.4
					c0-5,1.9-9.8,5.3-13.4c3.5,1.9,6.7,4.4,9.6,7.3C3093.7,187.2,3093.7,192.7,3090.4,196.1L3090.4,196.1z M3090.4,196.1"/>
			</g>
			<path class="st10" d="M3002.8,182.3c0.5,0,1-0.2,1.4-0.6c0.4-0.4,0.6-0.9,0.6-1.4c0-0.5-0.2-1-0.6-1.4c-0.4-0.4-0.9-0.6-1.4-0.6
				c-0.5,0-1,0.2-1.4,0.6c-0.4,0.4-0.6,0.9-0.6,1.4c0,0.5,0.2,1,0.6,1.4C3001.8,182.1,3002.3,182.3,3002.8,182.3L3002.8,182.3z
				 M3002.8,182.3"/>
		</g>
		<g>
			<g>
				<defs>
					<rect id="SVGID_9_" x="2797.2" y="145" width="90" height="90"/>
				</defs>
				<clipPath id="SVGID_10_">
					<use xlink:href="#SVGID_9_"  style="overflow:visible;"/>
				</clipPath>
				<path class="st27" d="M2871.3,180.6c0.5,0,0.9-0.2,1.2-0.5c0.3-0.3,0.5-0.8,0.5-1.2c0-0.5-0.2-0.9-0.5-1.2
					c-0.3-0.3-0.8-0.5-1.2-0.5c-0.5,0-0.9,0.2-1.2,0.5c-0.3,0.3-0.5,0.8-0.5,1.2c0,0.5,0.2,0.9,0.5,1.2
					C2870.4,180.4,2870.8,180.6,2871.3,180.6L2871.3,180.6z M2871.3,180.6"/>
				<path class="st27" d="M2887.2,184.7c0-2.2-0.9-4.4-2.5-6.1l-6.1-6.8c-1.9-2.1-4.3-3.7-7-4.5l-4.9-9.6c-0.3-0.6-0.9-1-1.6-1
					c-0.7,0-1.3,0.4-1.6,1.1l-4.8,11.1c-1.9,1.2-3.5,2.7-4.8,4.5l-6.5,8.6h-3.3v-13.7c0-6.2-2.4-12.1-6.9-16.5
					c-4.4-4.4-10.3-6.9-16.5-6.9c0,0,0,0,0,0c-12.9,0-23.4,10.5-23.4,23.4v6.5c0,0.5,0.3,1.1,0.7,1.4c0.4,0.3,1,0.4,1.5,0.3
					c3.5-0.9,6.3,0.8,7.7,2.8c1.4,1.9,2.2,5.1,0.2,8.2c-2.3,3.6-4,7.6-5,11.8c-0.2,0.9,0.4,1.9,1.3,2.1c0.1,0,0.3,0,0.4,0
					c0.8,0,1.5-0.6,1.7-1.4c0.9-3.8,2.4-7.4,4.5-10.7c2.4-3.8,2.3-8.5-0.3-12.1c-2.2-3.1-5.6-4.7-9.2-4.4v-4.4
					c0-5.3,2.1-10.3,5.8-14.1c3.8-3.8,8.7-5.8,14.1-5.8c5.3,0,10.3,2.1,14.1,5.8c3.8,3.8,5.8,8.7,5.8,14.1V182
					c-14.2,0.5-25.6,12.1-25.6,26.5c0,9.8,5.3,18.4,13.3,22.9c-10.1-0.3-19-6.9-22.1-16.6c-0.3-0.9-1.3-1.4-2.2-1.1
					c-0.9,0.3-1.4,1.3-1.1,2.2c1.8,5.5,5.1,10.2,9.8,13.7c4.7,3.5,10.4,5.4,16.3,5.4h26.9c1,0,1.8-0.8,1.8-1.8c0-2.5-1-4.9-2.8-6.7
					c-0.6-0.6-1.2-1.1-1.9-1.5c2.1-1.4,3.9-3.2,5.3-5.3c1.4-2,2.3-4.3,2.9-6.7l1-4.5c3.5-0.1,6.8-1.6,9.1-4.4
					c0.4-0.5,1.1-0.9,1.8-0.9c3.5,0,6.3-2.8,6.3-6.3c0-1-0.2-2-0.7-2.8c2.3-0.1,4.4-1.1,6-2.8
					C2886.4,189.5,2887.3,187.2,2887.2,184.7L2887.2,184.7z M2872.9,199.7c-1.8,0-3.4,0.8-4.5,2.1c-1.6,2-4,3.1-6.6,3.1h-5.4
					c-1,0-1.8,0.8-1.8,1.8c0,1,0.8,1.8,1.8,1.8h2l-0.8,3.8c-0.4,2-1.2,3.8-2.4,5.5c-1.4,2-3.1,3.7-5.2,4.9c1.2-2.1,1.9-4.6,1.9-7.1
					c0-7.8-6.3-14.1-14.1-14.1c-1,0-1.8,0.8-1.8,1.8c0,1,0.8,1.8,1.8,1.8c5.8,0,10.6,4.7,10.6,10.6c0,3.3-1.6,6.5-4.3,8.5
					c-0.6,0.5-0.9,1.2-0.6,2c0.2,0.7,0.9,1.2,1.7,1.2h2.8c1.6,0,3.1,0.6,4.2,1.8c0.7,0.7,1.2,1.5,1.5,2.5h-12.3
					c-12.7,0-23-10.3-23-23c0-12.7,10.3-23,23-23h6.9c0.6,0,1.1-0.3,1.4-0.7l7-9.4c0,0,0,0,0-0.1c1.1-1.6,2.5-2.9,4.2-3.8
					c0.3-0.2,0.6-0.5,0.8-0.8l3.6-8.2l3.5,6.9c0.2,0.5,0.6,0.9,1.2,1c2.4,0.6,4.5,1.9,6.1,3.7l6.1,6.8c1,1.1,1.5,2.4,1.6,3.8
					c0,0.8-0.1,1.6-0.4,2.3l-1.8-0.9c-0.9-0.4-1.9,0-2.3,0.8c-0.4,0.9,0,1.9,0.8,2.3l0.9,0.4c-0.9,0.5-1.9,0.8-2.9,0.8c0,0-5,0-5,0
					c-2.1,0-4.1,0.6-5.8,1.7c-1.1,0.7-2.4,1-3.7,1h-5.3c-1,0-1.8,0.8-1.8,1.8c0,1,0.8,1.8,1.8,1.8h5.3c2,0,3.9-0.5,5.5-1.6
					c1.2-0.7,2.6-1.1,4-1.1c1.6,0,2.8,1.3,2.8,2.8C2875.8,198.5,2874.5,199.7,2872.9,199.7L2872.9,199.7z M2872.9,199.7"/>
			</g>
			<path class="st10" d="M2804.5,208.8c0.3-0.3,0.5-0.8,0.5-1.2c0-0.5-0.2-0.9-0.5-1.2c-0.3-0.3-0.8-0.5-1.2-0.5
				c-0.5,0-0.9,0.2-1.2,0.5c-0.3,0.3-0.5,0.8-0.5,1.2c0,0.5,0.2,0.9,0.5,1.2c0.3,0.3,0.8,0.5,1.2,0.5S2804.1,209.1,2804.5,208.8
				L2804.5,208.8z M2804.5,208.8"/>
		</g>
	</g>
	<g>
		<g>
			<g>
				<defs>
					<rect id="SVGID_11_" x="-611.4" y="4.7" width="100" height="89.1"/>
				</defs>
				<clipPath id="SVGID_12_">
					<use xlink:href="#SVGID_11_"  style="overflow:visible;"/>
				</clipPath>
				<path class="st28" d="M-512.9,21.4c-1.2-1.4-3-2.2-4.8-2.2h-4.5c-2-3.5-5.7-5.7-9.8-5.7h-0.9V6.7c0-1.1-0.9-2-2-2
					c-7.3,0-13.2,5.9-13.2,13.2V24c0,4.2-2.3,8.1-6.1,10l-6.4,3.3c-1,0.5-1.3,1.7-0.8,2.6c0.3,0.7,1,1.1,1.7,1.1
					c0.3,0,0.6-0.1,0.9-0.2l6.4-3.3c5.1-2.6,8.2-7.8,8.2-13.5v-6.1c0-4.5,3.2-8.2,7.3-9.1v6.6c0,1.1,0.9,2,2,2h2.9
					c3,0,5.6,1.8,6.8,4.5c0.3,0.7,1,1.2,1.8,1.2h5.7c0.7,0,1.4,0.3,1.8,0.9c0.5,0.5,0.7,1.3,0.5,2l-0.7,4.2
					c-0.5,2.7-2.7,4.6-5.4,4.6h-8.7c0,0,0,0-0.1,0c0,0,0,0-0.1,0c-1.1,0-2,0.9-2,2v9.6c0,6.9-1.3,13.6-4,20
					c-0.2,0.4-0.2,0.8-0.1,1.2l4.8,18.4c0.1,0.3,0.2,0.6,0.5,0.9l1.7,1.8c0.3,0.3,0.2,0.7,0.2,0.8c-0.1,0.2-0.3,0.5-0.7,0.5h-6.5
					l-8.4-21.7v-9c0-1.1-0.9-2-2-2c-1.1,0-2,0.9-2,2v9.4c0,0.2,0,0.5,0.1,0.7l8,20.7h-6.9c-0.9-6.1-6.2-10.8-12.6-10.8h-2.2
					l-0.9-5.2c-0.9-5.5-5.1-9.9-10.6-11l-3.7-0.8c-1.1-0.2-2.1,0.5-2.3,1.5c-0.2,1.1,0.5,2.1,1.5,2.3l3.7,0.8
					c3.9,0.8,6.9,3.9,7.5,7.8l0.8,4.5h-12c-1.1,0-2,0.9-2,2c0,1.1,0.9,2,2,2h18.2c4.2,0,7.7,3,8.6,6.9h-27.2
					c-9.8,0-17.7-7.9-17.7-17.7c0-7.3,4-14,10.6-17.3l11.4-5.9c1-0.5,1.3-1.7,0.8-2.6c-0.5-1-1.7-1.3-2.6-0.8l-11.4,5.9
					c-3.1,1.6-5.8,3.8-7.8,6.5c-0.2-1-0.3-2.1-0.3-3.1c0-5.5,3-10.5,7.7-13.2c1.3-0.7,1.9-2.2,1.5-3.6c-0.4-1.5-1.8-2.6-3.3-2.6
					c0,0,0,0,0,0c0,0,0,0,0,0c0,0,0,0,0,0c-11.7,0-21.3,9.6-21.6,21.4c-0.2,8.2,4.4,15.9,11.6,19.8c2,9.8,10.8,17.3,21.2,17.3h48.7
					c1.9,0,3.6-1.1,4.3-2.8c0.8-1.8,0.4-3.7-0.9-5.1l-1.4-1.4l-4.5-17.3c2.7-6.7,4-13.7,4-20.9v-7.6h6.9c4.6,0,8.5-3.3,9.3-7.8
					l0.7-4.2C-511.2,24.7-511.7,22.8-512.9,21.4L-512.9,21.4z M-607.5,56.7c0.2-9,7.1-16.5,15.7-17.5c-4.9,3.6-7.8,9.3-7.8,15.4
					c0,2.6,0.5,5.2,1.6,7.6c-1.3,2.9-2.1,6-2.2,9.3C-604.9,68.1-607.6,62.6-607.5,56.7L-607.5,56.7z M-607.5,56.7"/>
			</g>
			<path class="st10" d="M-530.1,25.4c0.4-0.4,0.6-0.9,0.6-1.4c0-0.5-0.2-1-0.6-1.4c-0.4-0.4-0.9-0.6-1.4-0.6c-0.5,0-1,0.2-1.4,0.6
				c-0.4,0.4-0.6,0.9-0.6,1.4c0,0.5,0.2,1,0.6,1.4c0.4,0.4,0.9,0.6,1.4,0.6C-530.9,26-530.4,25.8-530.1,25.4L-530.1,25.4z
				 M-530.1,25.4"/>
			<path class="st10" d="M-567.5,45.1c0.5,0,1-0.2,1.4-0.6c0.4-0.4,0.6-0.9,0.6-1.4c0-0.5-0.2-1-0.6-1.4c-0.4-0.4-0.9-0.6-1.4-0.6
				c-0.5,0-1,0.2-1.4,0.6c-0.4,0.4-0.6,0.9-0.6,1.4c0,0.5,0.2,1,0.6,1.4C-568.5,44.9-568,45.1-567.5,45.1L-567.5,45.1z M-567.5,45.1
				"/>
		</g>
		<g>
			<path class="st10" d="M-322.5,38.6c-0.4-0.8-1.2-1.3-2-1.3h-1.8c-0.9,0-1.7,0.5-2,1.3c-0.4,0.8-0.2,1.7,0.3,2.4l0.9,1.1
				c0.4,0.5,1.1,0.8,1.7,0.8c0.7,0,1.3-0.3,1.7-0.8l0.9-1.1C-322.2,40.3-322.1,39.4-322.5,38.6L-322.5,38.6z M-322.5,38.6"/>
			<path class="st10" d="M-331.4,30.7c-0.5,0-1,0.2-1.4,0.6c-0.4,0.4-0.6,0.9-0.6,1.4c0,0.5,0.2,1,0.6,1.4c0.4,0.4,0.9,0.6,1.4,0.6
				c0.5,0,1-0.2,1.4-0.6c0.4-0.4,0.6-0.9,0.6-1.4c0-0.5-0.2-1-0.6-1.4C-330.4,30.9-330.9,30.7-331.4,30.7L-331.4,30.7z M-331.4,30.7
				"/>
			<g>
				<defs>
					<rect id="SVGID_13_" x="-406.9" y="14.6" width="100" height="79.2"/>
				</defs>
				<clipPath id="SVGID_14_">
					<use xlink:href="#SVGID_13_"  style="overflow:visible;"/>
				</clipPath>
				<path class="st29" d="M-319.4,34.6c0.5,0,1-0.2,1.4-0.6c0.4-0.4,0.6-0.9,0.6-1.4c0-0.5-0.2-1-0.6-1.4c-0.4-0.4-0.9-0.6-1.4-0.6
					c-0.5,0-1,0.2-1.4,0.6c-0.4,0.4-0.6,0.9-0.6,1.4c0,0.5,0.2,1,0.6,1.4C-320.4,34.4-319.9,34.6-319.4,34.6L-319.4,34.6z
					 M-319.4,34.6"/>
				<path class="st29" d="M-319.5,51c7.3-1.7,12.7-8.2,12.7-15.9c0-3.4-1.1-6.8-3.1-9.6c0.2-1,0.4-2,0.5-3c0.1-1.6,0.1-3.2-0.2-4.8
					c-0.2-1.1-0.8-2-1.8-2.6c-1-0.5-2.1-0.6-3.1-0.2c-2.2,0.9-4.2,2.3-5.9,3.9c-0.9-0.1-1.8-0.2-2.6-0.2h-4.3
					c-0.9,0-1.8,0.1-2.6,0.2c-1.7-1.7-3.7-3-5.9-3.9c-1-0.4-2.2-0.4-3.1,0.2c-1,0.5-1.6,1.5-1.8,2.6c-0.3,1.6-0.3,3.2-0.2,4.8
					c0.1,1,0.2,2,0.5,2.9c-0.7,1-1.4,2.1-1.8,3.3h-27.6c-4,0-7.8,0.8-11.4,2.5c-1,0.5-1.4,1.6-0.9,2.6c0.3,0.7,1,1.1,1.8,1.1
					c0.3,0,0.6-0.1,0.8-0.2c3.1-1.4,6.3-2.1,9.7-2.1h26.5c-0.1,0.8-0.2,1.6-0.2,2.4c0,9,7.3,16.4,16.4,16.4h3.9
					c-1.4,5-4.8,9.3-9.4,11.8l-1-2.2c-0.5-1-1.6-1.4-2.6-0.9c-1,0.5-1.4,1.6-0.9,2.6l5.3,11.3c0.1,0.2,0.2,0.4,0.4,0.5l2.3,2.3
					c0.5,0.5,0.4,1.1,0.3,1.4c-0.1,0.2-0.4,0.8-1.2,0.8h-5.6c0,0-21.1-27.4-21.2-27.4c-2.9-3.6-7.3-5.9-12.2-5.9c-1.1,0-2,0.9-2,2
					c0,1.1,0.9,2,2,2c6.5,0,11.8,5.3,11.8,11.8c0,3.7-1.8,7.3-4.8,9.5c-0.7,0.5-1,1.4-0.7,2.2c0.3,0.8,1,1.3,1.9,1.3h3.1
					c3,0,5.5,2,6.3,4.7h-18.2c-12.7,0-23.1-10.4-23.1-23.1c0-3.4,0.7-6.6,2.1-9.7c0.5-1,0-2.1-1-2.6c-1-0.5-2.1,0-2.6,1
					c-1.6,3.6-2.5,7.4-2.5,11.3c0,2.5,0.3,4.9,1,7.2c-6.2,2.2-10.5,8.1-10.5,14.9c0,8.7,7.1,15.8,15.8,15.8h52.3c1.1,0,2-0.9,2-2
					c0-3.4-1.4-6.5-3.6-8.8h9.8c2.1,0,3.9-1.2,4.8-3.2c0.8-2,0.4-4.1-1.1-5.6l-2-2.1l-2.4-5.2C-325.4,63.5-321,57.7-319.5,51
					L-319.5,51z M-340,35.1c0-2.9,1-5.7,2.8-7.9c0.4-0.5,0.5-1.2,0.4-1.8c-0.3-1-0.5-2.1-0.6-3.1c-0.1-1.2-0.1-2.3,0.1-3.5
					c1.9,0.9,3.6,2.1,5,3.6c0.5,0.5,1.2,0.7,1.9,0.6c0.9-0.2,1.9-0.3,2.8-0.3h4.3c0.9,0,1.9,0.1,2.8,0.3c0.7,0.2,1.4-0.1,1.9-0.6
					c1.4-1.5,3.1-2.7,5-3.6c0.2,1.1,0.2,2.3,0.1,3.5c-0.1,1-0.2,1.9-0.5,2.9c-0.3,0.7-0.2,1.5,0.3,2c1.8,2.2,2.8,5,2.8,7.9
					c0,6.9-5.6,12.5-12.5,12.5h-4.3C-334.4,47.5-340,41.9-340,35.1L-340,35.1z M-356.9,70.4c1.7-2.4,2.8-5.2,2.9-8.2l12.9,16.7h-6.9
					C-348.8,74.5-352.4,71-356.9,70.4L-356.9,70.4z M-391.1,89.7c-6.5,0-11.9-5.3-11.9-11.9c0-5.1,3.3-9.6,7.9-11.2
					c4.2,9.5,13.7,16.2,24.7,16.2h20.7c4.2,0,7.7,2.9,8.6,6.9H-391.1z M-391.1,89.7"/>
			</g>
			<path class="st10" d="M-388,40.1c0.5,0,1-0.2,1.4-0.6c0.4-0.4,0.6-0.9,0.6-1.4s-0.2-1-0.6-1.4c-0.4-0.4-0.9-0.6-1.4-0.6
				c-0.5,0-1,0.2-1.4,0.6c-0.4,0.4-0.6,0.9-0.6,1.4s0.2,1,0.6,1.4C-389,39.8-388.5,40.1-388,40.1L-388,40.1z M-388,40.1"/>
		</g>
		<g>
			<g>
				<defs>
					<rect id="SVGID_15_" x="2.3" y="16.9" width="100" height="64.6"/>
				</defs>
				<clipPath id="SVGID_16_">
					<use xlink:href="#SVGID_15_"  style="overflow:visible;"/>
				</clipPath>
				<path class="st30" d="M89.1,45.2c-0.5,0-1,0.2-1.4,0.6c-0.4,0.4-0.6,0.9-0.6,1.4c0,0.5,0.2,1,0.6,1.4c0.4,0.4,0.9,0.6,1.4,0.6
					c0.5,0,1-0.2,1.4-0.6c0.4-0.4,0.6-0.9,0.6-1.4c0-0.5-0.2-1-0.6-1.4C90.1,45.4,89.6,45.2,89.1,45.2L89.1,45.2z M89.1,45.2"/>
				<path class="st30" d="M102.3,49.2c0-3.3-1.3-6.5-3.6-8.8c-4.5-4.6-9.8-8.1-15.6-10.4c1.3-3.9,0-8.2-3.4-10.8
					c-2.1-1.6-4.7-2.3-7.3-1.9c-2.6,0.3-4.9,1.7-6.5,3.8c-1.3,1.7-2,3.7-2,5.8c-2.1,0.1-4.1,0.3-6.1,0.7C57,23.6,54,20.6,50,20
					c-5-0.7-9.7,2.8-10.4,7.8c-0.3,2.2,0.2,4.3,1.3,6.2c-2.6,1.7-5,3.6-7.2,5.8c-0.8,0.8-2.2,0.8-3,0L29,38.2
					c-3.5-3.5-8.2-5.1-13.1-4.4c-1.1,0.1-1.8,1.1-1.7,2.2c0.1,1.1,1.1,1.8,2.2,1.7c2.7-0.3,5.3,0.2,7.6,1.6c1.6,3.1,2.4,6.5,2.4,10
					c0,3.5-0.8,6.9-2.4,10c-1.8,1.1-3.9,1.7-6,1.7c-3.1,0-6.1-1.2-8.3-3.4c-2.6-2.6-3.8-6.2-3.3-9.8c0.1-1.1-0.6-2-1.7-2.2
					c-1.1-0.1-2,0.6-2.2,1.7c-0.6,4.9,1,9.6,4.4,13.1c2.9,3,6.9,4.6,11,4.6c4.2,0,8.1-1.6,11-4.6l1.7-1.7c0.8-0.8,2.2-0.8,3,0
					c2.2,2.2,4.7,4.1,7.2,5.8c-1.1,1.8-1.6,4-1.3,6.2c0.6,4.6,4.6,7.9,9.1,7.9c0.4,0,0.9,0,1.3-0.1c4-0.6,7-3.5,7.8-7.3
					c2,0.4,4,0.6,6.1,0.7c0,2.1,0.7,4.1,2,5.8c1.6,2.1,3.9,3.4,6.5,3.8c0.4,0.1,0.9,0.1,1.3,0.1c2.1,0,4.2-0.7,6-2
					c3.4-2.6,4.7-6.9,3.4-10.8c5.8-2.3,11.1-5.8,15.6-10.4C101,55.7,102.3,52.5,102.3,49.2L102.3,49.2z M65.9,67.8
					c-2.6,0-5.1-0.2-7.6-0.7c0.8-2.5,1.5-5.1,2-7.7l0.3,0.3c0.4,0.4,0.9,0.6,1.4,0.6c0.5,0,1-0.2,1.4-0.6l6.2-6.2
					c0.7,4.8,2.5,9.3,5.2,13.3C71.9,67.5,68.9,67.8,65.9,67.8L65.9,67.8z M37.3,41.8c2-1.8,4.1-3.5,6.4-4.9c2.5,8,2.5,16.6,0,24.6
					c-2.3-1.4-4.4-3-6.4-4.9c0.5-2.4,0.8-4.9,0.8-7.4C38.1,46.7,37.8,44.2,37.3,41.8L37.3,41.8z M47.2,34.9c2.4-1.2,4.8-2.1,7.4-2.8
					c1.2,3.5,2,7.1,2.4,10.8c-2.2,3.9-2.2,8.7,0,12.5c-0.4,3.7-1.3,7.3-2.4,10.8c-2.5-0.7-5-1.7-7.4-2.8
					C50.2,54.2,50.2,44.2,47.2,34.9L47.2,34.9z M65.9,30.6c3,0,6,0.3,8.8,0.9c-2.7,4-4.5,8.5-5.2,13.3l-6.2-6.2
					c-0.8-0.8-2-0.8-2.8,0l-0.3,0.3c-0.5-2.6-1.1-5.2-2-7.7C60.8,30.8,63.4,30.6,65.9,30.6L65.9,30.6z M61.8,42.9l0.2-0.2l6.4,6.4
					L62,55.6l-0.2-0.2C58.4,52,58.4,46.4,61.8,42.9L61.8,42.9z M78.8,65.8c-3.6-4.8-5.6-10.6-5.6-16.6c0,0,0,0,0,0
					c0-6,2-11.9,5.6-16.6c1.3,0.4,2.6,0.9,3.9,1.5c-3.6,4.2-5.6,9.6-5.6,15.2c0,5.6,2,11,5.6,15.2C81.4,64.9,80.1,65.4,78.8,65.8
					L78.8,65.8z M72.9,21.1c1.6-0.2,3.1,0.2,4.4,1.2c2,1.5,2.8,4.1,2.1,6.4c-3.7-1.1-7.6-1.8-11.6-1.9c0-1.2,0.5-2.4,1.2-3.4
					C69.9,22.1,71.3,21.3,72.9,21.1L72.9,21.1z M43.5,28.4c0.4-2.9,3.1-4.9,6-4.5c2.3,0.3,4.1,2.1,4.5,4.3c-3.4,0.9-6.6,2.2-9.7,3.8
					C43.6,31,43.3,29.7,43.5,28.4L43.5,28.4z M29.7,54.5c0.4-1.8,0.6-3.5,0.6-5.3c0-1.8-0.2-3.6-0.6-5.3c1.3,0.6,2.7,0.7,4.1,0.3
					c0.3,1.7,0.4,3.3,0.4,5c0,1.7-0.1,3.4-0.4,5C32.5,53.9,31,54,29.7,54.5L29.7,54.5z M49.5,74.5c-2.9,0.4-5.6-1.6-6-4.5
					c-0.2-1.3,0.1-2.6,0.8-3.6c3.1,1.6,6.3,2.9,9.7,3.8C53.6,72.4,51.8,74.2,49.5,74.5L49.5,74.5z M77.3,76.2
					c-1.3,1-2.8,1.4-4.4,1.2c-1.6-0.2-3-1-3.9-2.3c-0.8-1-1.2-2.2-1.2-3.4c4-0.2,7.9-0.8,11.6-1.9C80.1,72.1,79.3,74.6,77.3,76.2
					L77.3,76.2z M95.9,55.3c-2.9,2.9-6.1,5.4-9.6,7.3C82.9,59,81,54.2,81,49.2c0-5,1.9-9.8,5.3-13.4c3.5,1.9,6.7,4.4,9.6,7.3
					C99.2,46.5,99.2,51.9,95.9,55.3L95.9,55.3z M95.9,55.3"/>
			</g>
			<path class="st21" d="M8.3,41.5c0.5,0,1-0.2,1.4-0.6c0.4-0.4,0.6-0.9,0.6-1.4c0-0.5-0.2-1-0.6-1.4c-0.4-0.4-0.9-0.6-1.4-0.6
				c-0.5,0-1,0.2-1.4,0.6c-0.4,0.4-0.6,0.9-0.6,1.4c0,0.5,0.2,1,0.6,1.4C7.2,41.3,7.8,41.5,8.3,41.5L8.3,41.5z M8.3,41.5"/>
		</g>
		<g>
			<g>
				<defs>
					<rect id="SVGID_17_" x="-197.3" y="4.2" width="90" height="90"/>
				</defs>
				<clipPath id="SVGID_18_">
					<use xlink:href="#SVGID_17_"  style="overflow:visible;"/>
				</clipPath>
				<path class="st31" d="M-123.2,39.8c0.5,0,0.9-0.2,1.2-0.5c0.3-0.3,0.5-0.8,0.5-1.2c0-0.5-0.2-0.9-0.5-1.2
					c-0.3-0.3-0.8-0.5-1.2-0.5c-0.5,0-0.9,0.2-1.2,0.5c-0.3,0.3-0.5,0.8-0.5,1.2c0,0.5,0.2,0.9,0.5,1.2
					C-124.1,39.6-123.7,39.8-123.2,39.8L-123.2,39.8z M-123.2,39.8"/>
				<path class="st31" d="M-107.3,43.9c0-2.2-0.9-4.4-2.5-6.1l-6.1-6.8c-1.9-2.1-4.3-3.7-7-4.5l-4.9-9.6c-0.3-0.6-0.9-1-1.6-1
					c-0.7,0-1.3,0.4-1.6,1.1l-4.8,11.1c-1.9,1.2-3.5,2.7-4.8,4.5l-6.5,8.6h-3.3V27.6c0-6.2-2.4-12.1-6.9-16.5
					c-4.4-4.4-10.3-6.9-16.5-6.9c0,0,0,0,0,0c-12.9,0-23.4,10.5-23.4,23.4v6.5c0,0.5,0.3,1.1,0.7,1.4c0.4,0.3,1,0.4,1.5,0.3
					c3.5-0.9,6.3,0.8,7.7,2.8c1.4,1.9,2.2,5.1,0.2,8.2c-2.3,3.6-4,7.6-5,11.8c-0.2,0.9,0.4,1.9,1.3,2.1c0.1,0,0.3,0,0.4,0
					c0.8,0,1.5-0.6,1.7-1.4c0.9-3.8,2.4-7.4,4.5-10.7c2.4-3.8,2.3-8.5-0.3-12.1c-2.2-3.1-5.6-4.7-9.2-4.4v-4.4
					c0-5.3,2.1-10.3,5.8-14.1c3.8-3.8,8.7-5.8,14.1-5.8c5.3,0,10.3,2.1,14.1,5.8c3.8,3.8,5.8,8.7,5.8,14.1v13.7
					c-14.2,0.5-25.6,12.1-25.6,26.5c0,9.8,5.3,18.4,13.3,22.9c-10.1-0.3-19-6.9-22.1-16.6c-0.3-0.9-1.3-1.4-2.2-1.1
					c-0.9,0.3-1.4,1.3-1.1,2.2c1.8,5.5,5.1,10.2,9.8,13.7c4.7,3.5,10.4,5.4,16.3,5.4h26.9c1,0,1.8-0.8,1.8-1.8c0-2.5-1-4.9-2.8-6.7
					c-0.6-0.6-1.2-1.1-1.9-1.5c2.1-1.4,3.9-3.2,5.3-5.3c1.4-2,2.3-4.3,2.9-6.7l1-4.5c3.5-0.1,6.8-1.6,9.1-4.4
					c0.4-0.5,1.1-0.9,1.8-0.9c3.5,0,6.3-2.8,6.3-6.3c0-1-0.2-2-0.7-2.8c2.3-0.1,4.4-1.1,6-2.8C-108.2,48.8-107.2,46.4-107.3,43.9
					L-107.3,43.9z M-121.6,59c-1.8,0-3.4,0.8-4.5,2.1c-1.6,2-4,3.1-6.6,3.1h-5.4c-1,0-1.8,0.8-1.8,1.8c0,1,0.8,1.8,1.8,1.8h2
					l-0.8,3.8c-0.4,2-1.2,3.8-2.4,5.5c-1.4,2-3.1,3.7-5.2,4.9c1.2-2.1,1.9-4.6,1.9-7.1c0-7.8-6.3-14.1-14.1-14.1
					c-1,0-1.8,0.8-1.8,1.8c0,1,0.8,1.8,1.8,1.8c5.8,0,10.6,4.7,10.6,10.6c0,3.3-1.6,6.5-4.3,8.5c-0.6,0.5-0.9,1.2-0.6,2
					s0.9,1.2,1.7,1.2h2.8c1.6,0,3.1,0.6,4.2,1.8c0.7,0.7,1.2,1.5,1.5,2.5h-12.3c-12.7,0-23-10.3-23-23c0-12.7,10.3-23,23-23h6.9
					c0.6,0,1.1-0.3,1.4-0.7l7-9.4c0,0,0,0,0-0.1c1.1-1.6,2.5-2.9,4.2-3.8c0.3-0.2,0.6-0.5,0.8-0.8l3.6-8.2l3.5,6.9
					c0.2,0.5,0.6,0.9,1.2,1c2.4,0.6,4.5,1.9,6.1,3.7l6.1,6.8c1,1.1,1.5,2.4,1.6,3.8c0,0.8-0.1,1.6-0.4,2.3l-1.8-0.9
					c-0.9-0.4-1.9,0-2.3,0.8c-0.4,0.9,0,1.9,0.8,2.3l0.9,0.4c-0.9,0.5-1.9,0.8-2.9,0.8c0,0-5,0-5,0c-2.1,0-4.1,0.6-5.8,1.7
					c-1.1,0.7-2.4,1-3.7,1h-5.3c-1,0-1.8,0.8-1.8,1.8c0,1,0.8,1.8,1.8,1.8h5.3c2,0,3.9-0.5,5.5-1.6c1.2-0.7,2.6-1.1,4-1.1
					c1.6,0,2.8,1.3,2.8,2.8C-118.8,57.7-120,59-121.6,59L-121.6,59z M-121.6,59"/>
			</g>
			<path class="st10" d="M-190.1,68c0.3-0.3,0.5-0.8,0.5-1.2c0-0.5-0.2-0.9-0.5-1.2c-0.3-0.3-0.8-0.5-1.2-0.5
				c-0.5,0-0.9,0.2-1.2,0.5c-0.3,0.3-0.5,0.8-0.5,1.2c0,0.5,0.2,0.9,0.5,1.2c0.3,0.3,0.8,0.5,1.2,0.5
				C-190.8,68.5-190.4,68.4-190.1,68L-190.1,68z M-190.1,68"/>
		</g>
	</g>
	<g>
		<rect x="2433.1" y="270" class="st9" width="613.8" height="484.9"/>
		<line class="st9" x1="2433.1" y1="270" x2="3046.8" y2="754.9"/>
		<line class="st9" x1="3046.8" y1="270" x2="2433.1" y2="754.9"/>
	</g>
	<rect x="2000.7" y="310" class="st0" width="402.4" height="156.8"/>
	<text transform="matrix(1 0 0 1 2000.6757 360.9522)"><tspan x="0" y="0" class="st21" style="font-family:'Poppins-Light'; font-size:60px;">Lorem ipsum </tspan><tspan x="0" y="72" class="st21" style="font-family:'Poppins-Light'; font-size:60px;">dolor sit</tspan></text>
	<rect x="2000.7" y="552.4" class="st0" width="402.4" height="156.8"/>
	<text transform="matrix(1 0 0 1 2000.6757 603.3943)"><tspan x="0" y="0" class="st21" style="font-family:'Poppins-Light'; font-size:60px;">amet, </tspan><tspan x="0" y="72" class="st21" style="font-family:'Poppins-Light'; font-size:60px;">consectetur</tspan></text>
	<rect x="3096.8" y="290" class="st0" width="402.4" height="156.8"/>
	<text transform="matrix(1 0 0 1 3096.8289 340.9522)"><tspan x="0" y="0" class="st21" style="font-family:'Poppins-Light'; font-size:60px;">elit, sed do </tspan><tspan x="0" y="72" class="st21" style="font-family:'Poppins-Light'; font-size:60px;">eiusmod</tspan></text>
	<rect x="3096.8" y="552.4" class="st0" width="402.4" height="156.8"/>
	<text transform="matrix(1 0 0 1 3096.8289 603.3943)"><tspan x="0" y="0" class="st21" style="font-family:'Poppins-Light'; font-size:60px;">tempor </tspan><tspan x="0" y="72" class="st21" style="font-family:'Poppins-Light'; font-size:60px;">incididunt ut</tspan></text>
	<rect x="3742.1" y="-60" class="st22" width="1920" height="935"/>
	<text transform="matrix(1 0 0 1 4341.8984 89.9685)" class="st21" style="font-family:'Poppins-SemiBold'; font-size:120px;">What we do</text>
	<g>
		<g>
			<g>
				<defs>
					<rect id="SVGID_19_" x="4344.5" y="145.4" width="100" height="89.1"/>
				</defs>
				<clipPath id="SVGID_20_">
					<use xlink:href="#SVGID_19_"  style="overflow:visible;"/>
				</clipPath>
				<path class="st32" d="M4443.1,162.2c-1.2-1.4-3-2.2-4.8-2.2h-4.5c-2-3.5-5.7-5.7-9.8-5.7h-0.9v-6.8c0-1.1-0.9-2-2-2
					c-7.3,0-13.2,5.9-13.2,13.2v6.1c0,4.2-2.3,8.1-6.1,10l-6.4,3.3c-1,0.5-1.3,1.7-0.8,2.6c0.3,0.7,1,1.1,1.7,1.1
					c0.3,0,0.6-0.1,0.9-0.2l6.4-3.3c5.1-2.6,8.2-7.8,8.2-13.5v-6.1c0-4.5,3.2-8.2,7.3-9.1v6.6c0,1.1,0.9,2,2,2h2.9
					c3,0,5.6,1.8,6.8,4.5c0.3,0.7,1,1.2,1.8,1.2h5.7c0.7,0,1.4,0.3,1.8,0.9c0.5,0.5,0.7,1.3,0.5,2l-0.7,4.2
					c-0.5,2.7-2.7,4.6-5.4,4.6h-8.7c0,0,0,0-0.1,0c0,0,0,0-0.1,0c-1.1,0-2,0.9-2,2v9.6c0,6.9-1.3,13.6-4,20
					c-0.2,0.4-0.2,0.8-0.1,1.2l4.8,18.4c0.1,0.3,0.2,0.6,0.5,0.9l1.7,1.8c0.3,0.3,0.2,0.7,0.2,0.8c-0.1,0.2-0.3,0.5-0.7,0.5h-6.5
					l-8.4-21.7v-9c0-1.1-0.9-2-2-2c-1.1,0-2,0.9-2,2v9.4c0,0.2,0,0.5,0.1,0.7l8,20.7h-6.9c-0.9-6.1-6.2-10.8-12.6-10.8h-2.2
					l-0.9-5.2c-0.9-5.5-5.1-9.9-10.6-11l-3.7-0.8c-1.1-0.2-2.1,0.5-2.3,1.5c-0.2,1.1,0.5,2.1,1.5,2.3l3.7,0.8
					c3.9,0.8,6.9,3.9,7.5,7.8l0.8,4.5h-12c-1.1,0-2,0.9-2,2c0,1.1,0.9,2,2,2h18.2c4.2,0,7.7,3,8.6,6.9h-27.2
					c-9.8,0-17.7-7.9-17.7-17.7c0-7.3,4-14,10.6-17.3l11.4-5.9c1-0.5,1.3-1.7,0.8-2.6c-0.5-1-1.7-1.3-2.6-0.8l-11.4,5.9
					c-3.1,1.6-5.8,3.8-7.8,6.5c-0.2-1-0.3-2.1-0.3-3.1c0-5.5,3-10.5,7.7-13.2c1.3-0.7,1.9-2.2,1.5-3.6c-0.4-1.5-1.8-2.6-3.3-2.6
					c0,0,0,0,0,0c0,0,0,0,0,0c0,0,0,0,0,0c-11.7,0-21.3,9.6-21.6,21.4c-0.2,8.2,4.4,15.9,11.6,19.8c2,9.8,10.8,17.3,21.2,17.3h48.7
					c1.9,0,3.6-1.1,4.3-2.8c0.8-1.8,0.4-3.7-0.9-5.1l-1.4-1.4l-4.5-17.3c2.7-6.7,4-13.7,4-20.9v-7.6h6.9c4.6,0,8.5-3.3,9.3-7.8
					l0.7-4.2C4444.8,165.5,4444.3,163.6,4443.1,162.2L4443.1,162.2z M4348.4,197.5c0.2-9,7.1-16.5,15.7-17.5
					c-4.9,3.6-7.8,9.3-7.8,15.4c0,2.6,0.5,5.2,1.6,7.6c-1.3,2.9-2.1,6-2.2,9.3C4351.1,208.9,4348.3,203.4,4348.4,197.5L4348.4,197.5
					z M4348.4,197.5"/>
			</g>
			<path class="st21" d="M4425.9,166.2c0.4-0.4,0.6-0.9,0.6-1.4s-0.2-1-0.6-1.4c-0.4-0.4-0.9-0.6-1.4-0.6c-0.5,0-1,0.2-1.4,0.6
				c-0.4,0.4-0.6,0.9-0.6,1.4s0.2,1,0.6,1.4c0.4,0.4,0.9,0.6,1.4,0.6C4425.1,166.7,4425.6,166.5,4425.9,166.2L4425.9,166.2z
				 M4425.9,166.2"/>
			<path class="st21" d="M4388.5,185.8c0.5,0,1-0.2,1.4-0.6c0.4-0.4,0.6-0.9,0.6-1.4c0-0.5-0.2-1-0.6-1.4c-0.4-0.4-0.9-0.6-1.4-0.6
				c-0.5,0-1,0.2-1.4,0.6c-0.4,0.4-0.6,0.9-0.6,1.4c0,0.5,0.2,1,0.6,1.4C4387.4,185.6,4387.9,185.8,4388.5,185.8L4388.5,185.8z
				 M4388.5,185.8"/>
		</g>
		<g>
			<path class="st10" d="M4633.5,179.4c-0.4-0.8-1.2-1.3-2-1.3h-1.8c-0.9,0-1.7,0.5-2,1.3c-0.4,0.8-0.2,1.7,0.3,2.4l0.9,1.1
				c0.4,0.5,1.1,0.8,1.7,0.8c0.7,0,1.3-0.3,1.7-0.8l0.9-1.1C4633.8,181.1,4633.9,180.2,4633.5,179.4L4633.5,179.4z M4633.5,179.4"/>
			<path class="st10" d="M4624.6,171.5c-0.5,0-1,0.2-1.4,0.6c-0.4,0.4-0.6,0.9-0.6,1.4c0,0.5,0.2,1,0.6,1.4c0.4,0.4,0.9,0.6,1.4,0.6
				c0.5,0,1-0.2,1.4-0.6c0.4-0.4,0.6-0.9,0.6-1.4c0-0.5-0.2-1-0.6-1.4C4625.6,171.7,4625.1,171.5,4624.6,171.5L4624.6,171.5z
				 M4624.6,171.5"/>
			<g>
				<defs>
					<rect id="SVGID_21_" x="4549.1" y="155.3" width="100" height="79.2"/>
				</defs>
				<clipPath id="SVGID_22_">
					<use xlink:href="#SVGID_21_"  style="overflow:visible;"/>
				</clipPath>
				<path class="st33" d="M4636.6,175.4c0.5,0,1-0.2,1.4-0.6c0.4-0.4,0.6-0.9,0.6-1.4c0-0.5-0.2-1-0.6-1.4c-0.4-0.4-0.9-0.6-1.4-0.6
					c-0.5,0-1,0.2-1.4,0.6c-0.4,0.4-0.6,0.9-0.6,1.4c0,0.5,0.2,1,0.6,1.4C4635.6,175.2,4636.1,175.4,4636.6,175.4L4636.6,175.4z
					 M4636.6,175.4"/>
				<path class="st33" d="M4636.4,191.8c7.3-1.7,12.7-8.2,12.7-15.9c0-3.4-1.1-6.8-3.1-9.6c0.2-1,0.4-2,0.5-3
					c0.1-1.6,0.1-3.2-0.2-4.8c-0.2-1.1-0.8-2-1.8-2.6c-1-0.5-2.1-0.6-3.1-0.2c-2.2,0.9-4.2,2.3-5.9,3.9c-0.9-0.1-1.8-0.2-2.6-0.2
					h-4.3c-0.9,0-1.8,0.1-2.6,0.2c-1.7-1.7-3.7-3-5.9-3.9c-1-0.4-2.2-0.4-3.1,0.2c-1,0.5-1.6,1.5-1.8,2.6c-0.3,1.6-0.3,3.2-0.2,4.8
					c0.1,1,0.2,2,0.5,2.9c-0.7,1-1.4,2.1-1.8,3.3h-27.6c-4,0-7.8,0.8-11.4,2.5c-1,0.5-1.4,1.6-0.9,2.6c0.3,0.7,1,1.1,1.8,1.1
					c0.3,0,0.6-0.1,0.8-0.2c3.1-1.4,6.3-2.1,9.7-2.1h26.5c-0.1,0.8-0.2,1.6-0.2,2.4c0,9,7.3,16.4,16.4,16.4h3.9
					c-1.4,5-4.8,9.3-9.4,11.8l-1-2.2c-0.5-1-1.6-1.4-2.6-0.9c-1,0.5-1.4,1.6-0.9,2.6l5.3,11.3c0.1,0.2,0.2,0.4,0.4,0.5l2.3,2.3
					c0.5,0.5,0.4,1.1,0.3,1.4c-0.1,0.2-0.4,0.8-1.2,0.8h-5.6c0,0-21.1-27.4-21.2-27.4c-2.9-3.6-7.3-5.9-12.2-5.9c-1.1,0-2,0.9-2,2
					c0,1.1,0.9,2,2,2c6.5,0,11.8,5.3,11.8,11.8c0,3.7-1.8,7.3-4.8,9.5c-0.7,0.5-1,1.4-0.7,2.2c0.3,0.8,1,1.3,1.9,1.3h3.1
					c3,0,5.5,2,6.3,4.7h-18.2c-12.7,0-23.1-10.4-23.1-23.1c0-3.4,0.7-6.6,2.1-9.7c0.5-1,0-2.1-1-2.6c-1-0.5-2.1,0-2.6,1
					c-1.6,3.6-2.5,7.4-2.5,11.3c0,2.5,0.3,4.9,1,7.2c-6.2,2.2-10.5,8.1-10.5,14.9c0,8.7,7.1,15.8,15.8,15.8h52.3c1.1,0,2-0.9,2-2
					c0-3.4-1.4-6.5-3.6-8.8h9.8c2.1,0,3.9-1.2,4.8-3.2c0.8-2,0.4-4.1-1.1-5.6l-2-2.1l-2.4-5.2C4630.6,204.3,4635,198.5,4636.4,191.8
					L4636.4,191.8z M4616,175.8c0-2.9,1-5.7,2.8-7.9c0.4-0.5,0.5-1.2,0.4-1.8c-0.3-1-0.5-2.1-0.6-3.1c-0.1-1.2-0.1-2.3,0.1-3.5
					c1.9,0.9,3.6,2.1,5,3.6c0.5,0.5,1.2,0.7,1.9,0.6c0.9-0.2,1.9-0.3,2.8-0.3h4.3c0.9,0,1.9,0.1,2.8,0.3c0.7,0.2,1.4-0.1,1.9-0.6
					c1.4-1.5,3.1-2.7,5-3.6c0.2,1.1,0.2,2.3,0.1,3.5c-0.1,1-0.2,1.9-0.5,2.9c-0.3,0.7-0.2,1.5,0.3,2c1.8,2.2,2.8,5,2.8,7.9
					c0,6.9-5.6,12.5-12.5,12.5h-4.3C4621.6,188.3,4616,182.7,4616,175.8L4616,175.8z M4599.1,211.2c1.7-2.4,2.8-5.2,2.9-8.2
					l12.9,16.7h-6.9C4607.1,215.3,4603.5,211.8,4599.1,211.2L4599.1,211.2z M4564.9,230.5c-6.5,0-11.9-5.3-11.9-11.9
					c0-5.1,3.3-9.6,7.9-11.2c4.2,9.5,13.7,16.2,24.7,16.2h20.7c4.2,0,7.7,2.9,8.6,6.9H4564.9z M4564.9,230.5"/>
			</g>
			<path class="st10" d="M4568,180.8c0.5,0,1-0.2,1.4-0.6c0.4-0.4,0.6-0.9,0.6-1.4c0-0.5-0.2-1-0.6-1.4c-0.4-0.4-0.9-0.6-1.4-0.6
				c-0.5,0-1,0.2-1.4,0.6c-0.4,0.4-0.6,0.9-0.6,1.4c0,0.5,0.2,1,0.6,1.4C4566.9,180.6,4567.5,180.8,4568,180.8L4568,180.8z
				 M4568,180.8"/>
		</g>
		<g>
			<g>
				<defs>
					<rect id="SVGID_23_" x="4958.3" y="157.7" width="100" height="64.6"/>
				</defs>
				<clipPath id="SVGID_24_">
					<use xlink:href="#SVGID_23_"  style="overflow:visible;"/>
				</clipPath>
				<path class="st34" d="M5045.1,185.9c-0.5,0-1,0.2-1.4,0.6c-0.4,0.4-0.6,0.9-0.6,1.4c0,0.5,0.2,1,0.6,1.4
					c0.4,0.4,0.9,0.6,1.4,0.6c0.5,0,1-0.2,1.4-0.6c0.4-0.4,0.6-0.9,0.6-1.4c0-0.5-0.2-1-0.6-1.4
					C5046.1,186.1,5045.6,185.9,5045.1,185.9L5045.1,185.9z M5045.1,185.9"/>
				<path class="st34" d="M5058.3,190c0-3.3-1.3-6.5-3.6-8.8c-4.5-4.6-9.8-8.1-15.6-10.4c1.3-3.9,0-8.2-3.4-10.8
					c-2.1-1.6-4.7-2.3-7.3-1.9c-2.6,0.3-4.9,1.7-6.5,3.8c-1.3,1.7-2,3.7-2,5.8c-2.1,0.1-4.1,0.3-6.1,0.7c-0.7-3.8-3.8-6.8-7.8-7.3
					c-5-0.7-9.7,2.8-10.4,7.8c-0.3,2.2,0.2,4.3,1.3,6.2c-2.6,1.7-5,3.6-7.2,5.8c-0.8,0.8-2.2,0.8-3,0l-1.7-1.7
					c-3.5-3.5-8.2-5.1-13.1-4.4c-1.1,0.1-1.8,1.1-1.7,2.2c0.1,1.1,1.1,1.8,2.2,1.7c2.7-0.3,5.3,0.2,7.6,1.6c1.6,3.1,2.4,6.5,2.4,10
					c0,3.5-0.8,6.9-2.4,10c-1.8,1.1-3.9,1.7-6,1.7c-3.1,0-6.1-1.2-8.3-3.4c-2.6-2.6-3.8-6.2-3.3-9.8c0.1-1.1-0.6-2-1.7-2.2
					c-1.1-0.1-2,0.6-2.2,1.7c-0.6,4.9,1,9.6,4.4,13.1c2.9,3,6.9,4.6,11,4.6c4.2,0,8.1-1.6,11-4.6l1.7-1.7c0.8-0.8,2.2-0.8,3,0
					c2.2,2.2,4.7,4.1,7.2,5.8c-1.1,1.8-1.6,4-1.3,6.2c0.6,4.6,4.6,7.9,9.1,7.9c0.4,0,0.9,0,1.3-0.1c4-0.6,7-3.5,7.8-7.3
					c2,0.4,4,0.6,6.1,0.7c0,2.1,0.7,4.1,2,5.8c1.6,2.1,3.9,3.4,6.5,3.8c0.4,0.1,0.9,0.1,1.3,0.1c2.1,0,4.2-0.7,6-2
					c3.4-2.6,4.7-6.9,3.4-10.8c5.8-2.3,11.1-5.8,15.6-10.4C5057,196.4,5058.3,193.3,5058.3,190L5058.3,190z M5021.9,208.6
					c-2.6,0-5.1-0.2-7.6-0.7c0.8-2.5,1.5-5.1,2-7.7l0.3,0.3c0.4,0.4,0.9,0.6,1.4,0.6c0.5,0,1-0.2,1.4-0.6l6.2-6.2
					c0.7,4.8,2.5,9.3,5.2,13.3C5027.9,208.3,5024.9,208.6,5021.9,208.6L5021.9,208.6z M4993.3,182.6c2-1.8,4.1-3.5,6.4-4.9
					c2.5,8,2.5,16.6,0,24.6c-2.3-1.4-4.4-3-6.4-4.9c0.5-2.4,0.8-4.9,0.8-7.4C4994.1,187.5,4993.8,185,4993.3,182.6L4993.3,182.6z
					 M5003.2,175.7c2.4-1.2,4.8-2.1,7.4-2.8c1.2,3.5,2,7.1,2.4,10.8c-2.2,3.9-2.2,8.7,0,12.5c-0.4,3.7-1.3,7.3-2.4,10.8
					c-2.5-0.7-5-1.7-7.4-2.8C5006.2,195,5006.2,185,5003.2,175.7L5003.2,175.7z M5021.9,171.3c3,0,6,0.3,8.8,0.9
					c-2.7,4-4.5,8.5-5.2,13.3l-6.2-6.2c-0.8-0.8-2-0.8-2.8,0l-0.3,0.3c-0.5-2.6-1.1-5.2-2-7.7
					C5016.8,171.6,5019.3,171.3,5021.9,171.3L5021.9,171.3z M5017.8,183.7l0.2-0.2l6.4,6.4l-6.4,6.4l-0.2-0.2
					C5014.4,192.8,5014.4,187.2,5017.8,183.7L5017.8,183.7z M5034.8,206.6c-3.6-4.8-5.6-10.6-5.6-16.6c0,0,0,0,0,0
					c0-6,2-11.9,5.6-16.6c1.3,0.4,2.6,0.9,3.9,1.5c-3.6,4.2-5.6,9.6-5.6,15.2c0,5.6,2,11,5.6,15.2
					C5037.4,205.7,5036.1,206.2,5034.8,206.6L5034.8,206.6z M5028.9,161.8c1.6-0.2,3.1,0.2,4.4,1.2c2,1.5,2.8,4.1,2.1,6.4
					c-3.7-1.1-7.6-1.8-11.6-1.9c0-1.2,0.5-2.4,1.2-3.4C5025.9,162.8,5027.3,162,5028.9,161.8L5028.9,161.8z M4999.4,169.2
					c0.4-2.9,3.1-4.9,6-4.5c2.3,0.3,4.1,2.1,4.5,4.3c-3.4,0.9-6.6,2.2-9.7,3.8C4999.6,171.8,4999.3,170.5,4999.4,169.2L4999.4,169.2
					z M4985.7,195.3c0.4-1.8,0.6-3.5,0.6-5.3c0-1.8-0.2-3.6-0.6-5.3c1.3,0.6,2.7,0.7,4.1,0.3c0.3,1.7,0.4,3.3,0.4,5
					c0,1.7-0.1,3.4-0.4,5C4988.4,194.6,4987,194.7,4985.7,195.3L4985.7,195.3z M5005.4,215.3c-2.9,0.4-5.6-1.6-6-4.5
					c-0.2-1.3,0.1-2.6,0.8-3.6c3.1,1.6,6.3,2.9,9.7,3.8C5009.5,213.2,5007.8,214.9,5005.4,215.3L5005.4,215.3z M5033.3,216.9
					c-1.3,1-2.8,1.4-4.4,1.2c-1.6-0.2-3-1-3.9-2.3c-0.8-1-1.2-2.2-1.2-3.4c4-0.2,7.9-0.8,11.6-1.9
					C5036,212.9,5035.3,215.4,5033.3,216.9L5033.3,216.9z M5051.9,196.1c-2.9,2.9-6.1,5.4-9.6,7.3c-3.4-3.6-5.3-8.4-5.3-13.4
					c0-5,1.9-9.8,5.3-13.4c3.5,1.9,6.7,4.4,9.6,7.3C5055.2,187.2,5055.2,192.7,5051.9,196.1L5051.9,196.1z M5051.9,196.1"/>
			</g>
			<path class="st10" d="M4964.2,182.3c0.5,0,1-0.2,1.4-0.6c0.4-0.4,0.6-0.9,0.6-1.4c0-0.5-0.2-1-0.6-1.4c-0.4-0.4-0.9-0.6-1.4-0.6
				c-0.5,0-1,0.2-1.4,0.6c-0.4,0.4-0.6,0.9-0.6,1.4c0,0.5,0.2,1,0.6,1.4C4963.2,182.1,4963.7,182.3,4964.2,182.3L4964.2,182.3z
				 M4964.2,182.3"/>
		</g>
		<g>
			<g>
				<defs>
					<rect id="SVGID_25_" x="4758.7" y="145" width="90" height="90"/>
				</defs>
				<clipPath id="SVGID_26_">
					<use xlink:href="#SVGID_25_"  style="overflow:visible;"/>
				</clipPath>
				<path class="st35" d="M4832.8,180.6c0.5,0,0.9-0.2,1.2-0.5c0.3-0.3,0.5-0.8,0.5-1.2c0-0.5-0.2-0.9-0.5-1.2
					c-0.3-0.3-0.8-0.5-1.2-0.5c-0.5,0-0.9,0.2-1.2,0.5c-0.3,0.3-0.5,0.8-0.5,1.2c0,0.5,0.2,0.9,0.5,1.2
					C4831.8,180.4,4832.3,180.6,4832.8,180.6L4832.8,180.6z M4832.8,180.6"/>
				<path class="st35" d="M4848.7,184.7c0-2.2-0.9-4.4-2.5-6.1l-6.1-6.8c-1.9-2.1-4.3-3.7-7-4.5l-4.9-9.6c-0.3-0.6-0.9-1-1.6-1
					c-0.7,0-1.3,0.4-1.6,1.1l-4.8,11.1c-1.9,1.2-3.5,2.7-4.8,4.5l-6.5,8.6h-3.3v-13.7c0-6.2-2.4-12.1-6.9-16.5
					c-4.4-4.4-10.3-6.9-16.5-6.9c0,0,0,0,0,0c-12.9,0-23.4,10.5-23.4,23.4v6.5c0,0.5,0.3,1.1,0.7,1.4c0.4,0.3,1,0.4,1.5,0.3
					c3.5-0.9,6.3,0.8,7.7,2.8c1.4,1.9,2.2,5.1,0.2,8.2c-2.3,3.6-4,7.6-5,11.8c-0.2,0.9,0.4,1.9,1.3,2.1c0.1,0,0.3,0,0.4,0
					c0.8,0,1.5-0.6,1.7-1.4c0.9-3.8,2.4-7.4,4.5-10.7c2.4-3.8,2.3-8.5-0.3-12.1c-2.2-3.1-5.6-4.7-9.2-4.4v-4.4
					c0-5.3,2.1-10.3,5.8-14.1c3.8-3.8,8.7-5.8,14.1-5.8c5.3,0,10.3,2.1,14.1,5.8c3.8,3.8,5.8,8.7,5.8,14.1V182
					c-14.2,0.5-25.6,12.1-25.6,26.5c0,9.8,5.3,18.4,13.3,22.9c-10.1-0.3-19-6.9-22.1-16.6c-0.3-0.9-1.3-1.4-2.2-1.1
					c-0.9,0.3-1.4,1.3-1.1,2.2c1.8,5.5,5.1,10.2,9.8,13.7c4.7,3.5,10.4,5.4,16.3,5.4h26.9c1,0,1.8-0.8,1.8-1.8c0-2.5-1-4.9-2.8-6.7
					c-0.6-0.6-1.2-1.1-1.9-1.5c2.1-1.4,3.9-3.2,5.3-5.3c1.4-2,2.3-4.3,2.9-6.7l1-4.5c3.5-0.1,6.8-1.6,9.1-4.4
					c0.4-0.5,1.1-0.9,1.8-0.9c3.5,0,6.3-2.8,6.3-6.3c0-1-0.2-2-0.7-2.8c2.3-0.1,4.4-1.1,6-2.8
					C4847.8,189.5,4848.8,187.2,4848.7,184.7L4848.7,184.7z M4834.4,199.7c-1.8,0-3.4,0.8-4.5,2.1c-1.6,2-4,3.1-6.6,3.1h-5.4
					c-1,0-1.8,0.8-1.8,1.8c0,1,0.8,1.8,1.8,1.8h2l-0.8,3.8c-0.4,2-1.2,3.8-2.4,5.5c-1.4,2-3.1,3.7-5.2,4.9c1.2-2.1,1.9-4.6,1.9-7.1
					c0-7.8-6.3-14.1-14.1-14.1c-1,0-1.8,0.8-1.8,1.8c0,1,0.8,1.8,1.8,1.8c5.8,0,10.6,4.7,10.6,10.6c0,3.3-1.6,6.5-4.3,8.5
					c-0.6,0.5-0.9,1.2-0.6,2c0.2,0.7,0.9,1.2,1.7,1.2h2.8c1.6,0,3.1,0.6,4.2,1.8c0.7,0.7,1.2,1.5,1.5,2.5h-12.3
					c-12.7,0-23-10.3-23-23c0-12.7,10.3-23,23-23h6.9c0.6,0,1.1-0.3,1.4-0.7l7-9.4c0,0,0,0,0-0.1c1.1-1.6,2.5-2.9,4.2-3.8
					c0.3-0.2,0.6-0.5,0.8-0.8l3.6-8.2l3.5,6.9c0.2,0.5,0.6,0.9,1.2,1c2.4,0.6,4.5,1.9,6.1,3.7l6.1,6.8c1,1.1,1.5,2.4,1.6,3.8
					c0,0.8-0.1,1.6-0.4,2.3l-1.8-0.9c-0.9-0.4-1.9,0-2.3,0.8c-0.4,0.9,0,1.9,0.8,2.3l0.9,0.4c-0.9,0.5-1.9,0.8-2.9,0.8c0,0-5,0-5,0
					c-2.1,0-4.1,0.6-5.8,1.7c-1.1,0.7-2.4,1-3.7,1h-5.3c-1,0-1.8,0.8-1.8,1.8c0,1,0.8,1.8,1.8,1.8h5.3c2,0,3.9-0.5,5.5-1.6
					c1.2-0.7,2.6-1.1,4-1.1c1.6,0,2.8,1.3,2.8,2.8C4837.2,198.5,4836,199.7,4834.4,199.7L4834.4,199.7z M4834.4,199.7"/>
			</g>
			<path class="st10" d="M4765.9,208.8c0.3-0.3,0.5-0.8,0.5-1.2c0-0.5-0.2-0.9-0.5-1.2c-0.3-0.3-0.8-0.5-1.2-0.5
				c-0.5,0-0.9,0.2-1.2,0.5c-0.3,0.3-0.5,0.8-0.5,1.2c0,0.5,0.2,0.9,0.5,1.2c0.3,0.3,0.8,0.5,1.2,0.5S4765.6,209.1,4765.9,208.8
				L4765.9,208.8z M4765.9,208.8"/>
		</g>
	</g>
	<g>
		<rect x="3942.1" y="270" class="st9" width="613.8" height="484.9"/>
		<line class="st9" x1="3942.1" y1="270" x2="4555.9" y2="754.9"/>
		<line class="st9" x1="4555.9" y1="270" x2="3942.1" y2="754.9"/>
	</g>
	<text transform="matrix(1 0 0 1 4599.1191 360.9522)"><tspan x="0" y="0" class="st21" style="font-family:'Poppins-Light'; font-size:60px;">Lorem ipsum </tspan><tspan x="0" y="72" class="st21" style="font-family:'Poppins-Light'; font-size:60px;">dolor sit</tspan></text>
	<text transform="matrix(1 0 0 1 4599.1191 603.3943)"><tspan x="0" y="0" class="st21" style="font-family:'Poppins-Light'; font-size:60px;">amet,  </tspan><tspan x="0" y="72" class="st21" style="font-family:'Poppins-Light'; font-size:60px;">consectetur</tspan></text>
	<text transform="matrix(1 0 0 1 5058.2861 360.9525)"><tspan x="0" y="0" class="st21" style="font-family:'Poppins-Light'; font-size:60px;">elit, sed do  </tspan><tspan x="0" y="72" class="st21" style="font-family:'Poppins-Light'; font-size:60px;">eiusmod</tspan></text>
	<text transform="matrix(1 0 0 1 5058.2861 603.3942)"><tspan x="0" y="0" class="st21" style="font-family:'Poppins-Light'; font-size:60px;">tempor  </tspan><tspan x="0" y="72" class="st21" style="font-family:'Poppins-Light'; font-size:60px;">incididunt ut</tspan></text>
</g>
<g id="Layer_8">
	<rect x="2600.7" y="875" class="st19" width="1100" height="935"/>
	<g>
		<rect x="1780.7" y="875" class="st21" width="820" height="935"/>
		<line class="st9" x1="1780.7" y1="875" x2="2600.7" y2="1810"/>
		<line class="st9" x1="2600.7" y1="875" x2="1780.7" y2="1810"/>
	</g>
	<text transform="matrix(1 0 0 1 2752.675 1074.9683)" class="st21" style="font-family:'Poppins-SemiBold'; font-size:120px;">So, Why us?</text>
	<text transform="matrix(1 0 0 1 2752.675 1490.1493)" class="st21" style="font-family:'Poppins-SemiBold'; font-size:60px;">Learn the best pet-care</text>
	<rect x="2752.7" y="1153.8" class="st0" width="746.6" height="228.8"/>
	<text transform="matrix(1 0 0 1 2752.6755 1204.765)"><tspan x="0" y="0" class="st21" style="font-family:'Poppins-Light'; font-size:60px;">Your best friend in our </tspan><tspan x="0" y="72" class="st21" style="font-family:'Poppins-Light'; font-size:60px;">hands, means a </tspan><tspan x="0" y="144" class="st21" style="font-family:'Poppins-Light'; font-size:60px;">peaceful sleep for you.</tspan></text>
	<rect x="2762" y="1571.8" class="st21" width="500" height="100"/>
	<rect x="3262" y="1571.8" class="st10" width="200" height="100"/>
</g>
<g id="Layer_9">
	<rect x="1780.7" y="1810" class="st22" width="1100" height="935"/>
	<text transform="matrix(1 0 0 1 1980.6753 2094.9685)"><tspan x="0" y="0" class="st21" style="font-family:'Poppins-SemiBold'; font-size:120px;">Second</tspan><tspan x="0" y="120" class="st21" style="font-family:'Poppins-SemiBold'; font-size:120px;">thoughts?</tspan></text>
	<rect x="1980.7" y="2313.9" class="st0" width="746.6" height="228.8"/>
	<text transform="matrix(1 0 0 1 1980.6758 2364.8535)"><tspan x="0" y="0" class="st21" style="font-family:'Poppins-Light'; font-size:60px;">We value customer </tspan><tspan x="0" y="72" class="st21" style="font-family:'Poppins-Light'; font-size:60px;">service. Heres what our </tspan><tspan x="0" y="144" class="st21" style="font-family:'Poppins-Light'; font-size:60px;">customers think of us.</tspan></text>
	<g>
		<rect x="2880.7" y="1810" class="st21" width="820" height="935"/>
		<line class="st9" x1="2880.7" y1="1810" x2="3700.7" y2="2745"/>
		<line class="st9" x1="3700.7" y1="1810" x2="2880.7" y2="2745"/>
	</g>
</g>
<g id="Layer_10">
	<rect x="1780.7" y="2745" class="st19" width="1920" height="935"/>
	<g>
		<rect x="2515.7" y="2987.5" class="st21" width="450" height="450"/>
		<line class="st9" x1="2515.7" y1="2987.5" x2="2965.7" y2="3437.5"/>
		<line class="st9" x1="2965.7" y1="2987.5" x2="2515.7" y2="3437.5"/>
	</g>
	<g>
		<rect x="3016.2" y="3212.5" class="st21" width="350" height="350"/>
		<line class="st9" x1="3016.2" y1="3212.5" x2="3366.2" y2="3562.5"/>
		<line class="st9" x1="3366.2" y1="3212.5" x2="3016.2" y2="3562.5"/>
	</g>
	<g>
		<rect x="2565.7" y="3487.5" class="st21" width="350" height="192.5"/>
		<path class="st9" d="M2915.7,3837.5"/>
		<polyline class="st9" points="2565.7,3487.5 2740.7,3662.5 2758.2,3680 		"/>
		<path class="st9" d="M2565.7,3837.5"/>
		<polyline class="st9" points="2915.7,3487.5 2740.7,3662.5 2723.2,3680 		"/>
	</g>
	<g>
		<rect x="2565.7" y="2745" class="st21" width="350" height="192.5"/>
		<polyline class="st9" points="2723.2,2745 2740.7,2762.5 2915.7,2937.5 		"/>
		<path class="st9" d="M2565.7,2587.5"/>
		<polyline class="st9" points="2758.2,2745 2740.7,2762.5 2565.7,2937.5 		"/>
		<path class="st9" d="M2915.7,2587.5"/>
	</g>
	<g>
		<rect x="3416.2" y="3387.5" class="st21" width="250" height="250"/>
		<line class="st9" x1="3416.2" y1="3387.5" x2="3666.2" y2="3637.5"/>
		<line class="st9" x1="3666.2" y1="3387.5" x2="3416.2" y2="3637.5"/>
	</g>
	<g>
		<rect x="3416.2" y="3087.5" class="st21" width="250" height="250"/>
		<line class="st9" x1="3416.2" y1="3087.5" x2="3666.2" y2="3337.5"/>
		<line class="st9" x1="3666.2" y1="3087.5" x2="3416.2" y2="3337.5"/>
	</g>
	<g>
		<rect x="3416.2" y="2787.5" class="st21" width="250" height="250"/>
		<line class="st9" x1="3416.2" y1="2787.5" x2="3666.2" y2="3037.5"/>
		<line class="st9" x1="3666.2" y1="2787.5" x2="3416.2" y2="3037.5"/>
	</g>
	<g>
		<rect x="1815.7" y="3387.5" class="st21" width="250" height="250"/>
		<line class="st9" x1="1815.7" y1="3387.5" x2="2065.7" y2="3637.5"/>
		<line class="st9" x1="2065.7" y1="3387.5" x2="1815.7" y2="3637.5"/>
	</g>
	<g>
		<rect x="1815.7" y="3087.5" class="st21" width="250" height="250"/>
		<line class="st9" x1="1815.7" y1="3087.5" x2="2065.7" y2="3337.5"/>
		<line class="st9" x1="2065.7" y1="3087.5" x2="1815.7" y2="3337.5"/>
	</g>
	<g>
		<rect x="1815.7" y="2787.5" class="st21" width="250" height="250"/>
		<line class="st9" x1="1815.7" y1="2787.5" x2="2065.7" y2="3037.5"/>
		<line class="st9" x1="2065.7" y1="2787.5" x2="1815.7" y2="3037.5"/>
	</g>
	<g>
		<rect x="3016.2" y="2812.5" class="st21" width="350" height="350"/>
		<line class="st9" x1="3016.2" y1="2812.5" x2="3366.2" y2="3162.5"/>
		<line class="st9" x1="3366.2" y1="2812.5" x2="3016.2" y2="3162.5"/>
	</g>
	<g>
		<rect x="2115.7" y="3212.5" class="st21" width="350" height="350"/>
		<line class="st9" x1="2115.7" y1="3212.5" x2="2465.7" y2="3562.5"/>
		<line class="st9" x1="2465.7" y1="3212.5" x2="2115.7" y2="3562.5"/>
	</g>
	<g>
		<rect x="2115.7" y="2812.5" class="st21" width="350" height="350"/>
		<line class="st9" x1="2115.7" y1="2812.5" x2="2465.7" y2="3162.5"/>
		<line class="st9" x1="2465.7" y1="2812.5" x2="2115.7" y2="3162.5"/>
	</g>
</g>
<g id="Layer_11">
	<rect x="1780.7" y="3680" class="st36" width="1920" height="150"/>
</g>
</svg>
