<?xml version="1.0" encoding="utf-8"?>
<!-- Generator: Adobe Illustrator 22.1.0, SVG Export Plug-In . SVG Version: 6.00 Build 0)  -->
<svg version="1.1" xmlns="http://www.w3.org/2000/svg" xmlns:xlink="http://www.w3.org/1999/xlink" x="0px" y="0px"
	 viewBox="0 0 105 105" style="enable-background:new 0 0 105 105;" xml:space="preserve">
<style type="text/css">
	.st0{fill:#F15A24;}
	.st1{display:none;}
	.st2{display:inline;fill:#F15A24;}
	.st3{display:inline;}
	.st4{display:inline;fill:none;stroke:#000000;stroke-miterlimit:10;}
	.st5{fill:#FFFFFF;stroke:#000000;stroke-miterlimit:10;}
	.st6{display:inline;fill:#FFFFFF;stroke:#000000;stroke-miterlimit:10;}
	.st7{fill:none;stroke:#000000;stroke-miterlimit:10;}
	.st8{fill:#E76F51;}
	.st9{fill:#ED1E79;}
	.st10{stroke:#000000;stroke-miterlimit:10;}
	.st11{fill:#FFFFFF;}
	.st12{display:none;fill:url(#);}
	.st13{fill:none;stroke:#12100B;stroke-width:0.5;stroke-miterlimit:10;}
	.st14{fill:none;stroke:#13110C;stroke-width:0.5;stroke-linecap:round;stroke-miterlimit:10;}
	.st15{fill:#12100B;}
	.st16{fill:#2A9D8F;}
	.st17{display:none;fill:#264653;}
	.st18{fill:#F2F2F2;}
	.st19{fill:#F4A261;}
	.st20{display:inline;fill:#F2F2F2;}
	.st21{clip-path:url(#SVGID_2_);fill:#F2F2F2;}
	.st22{clip-path:url(#SVGID_4_);fill:#E76F51;}
	.st23{clip-path:url(#SVGID_6_);fill:#E76F51;}
	.st24{clip-path:url(#SVGID_8_);fill:#E76F51;}
	.st25{clip-path:url(#SVGID_10_);fill:#E76F51;}
	.st26{clip-path:url(#SVGID_12_);fill:#E76F51;}
	.st27{clip-path:url(#SVGID_14_);fill:#E76F51;}
	.st28{clip-path:url(#SVGID_16_);fill:#E76F51;}
	.st29{clip-path:url(#SVGID_18_);fill:#F2F2F2;}
	.st30{clip-path:url(#SVGID_20_);fill:#E76F51;}
	.st31{clip-path:url(#SVGID_22_);fill:#E76F51;}
	.st32{clip-path:url(#SVGID_24_);fill:#E76F51;}
	.st33{fill:#264653;}
</style>
<g id="Layer_2">
</g>
<g id="Layer_1">
</g>
<g id="Layer_3">
</g>
<g id="Layer_4">
</g>
<g id="Guides" class="st1">
</g>
<g id="Layer_5">
</g>
<g id="Layer_7">
	<g>
		<g>
			<g>
				<defs>
					<rect id="SVGID_13_" x="2.3" y="16.9" width="100" height="64.6"/>
				</defs>
				<clipPath id="SVGID_2_">
					<use xlink:href="#SVGID_13_"  style="overflow:visible;"/>
				</clipPath>
				<path style="clip-path:url(#SVGID_2_);fill:#E76F51;" d="M89.1,45.2c-0.5,0-1,0.2-1.4,0.6c-0.4,0.4-0.6,0.9-0.6,1.4
					c0,0.5,0.2,1,0.6,1.4c0.4,0.4,0.9,0.6,1.4,0.6c0.5,0,1-0.2,1.4-0.6c0.4-0.4,0.6-0.9,0.6-1.4c0-0.5-0.2-1-0.6-1.4
					C90.1,45.4,89.6,45.2,89.1,45.2L89.1,45.2z M89.1,45.2"/>
				<path style="clip-path:url(#SVGID_2_);fill:#E76F51;" d="M102.3,49.2c0-3.3-1.3-6.5-3.6-8.8c-4.5-4.6-9.8-8.1-15.6-10.4
					c1.3-3.9,0-8.2-3.4-10.8c-2.1-1.6-4.7-2.3-7.3-1.9c-2.6,0.3-4.9,1.7-6.5,3.8c-1.3,1.7-2,3.7-2,5.8c-2.1,0.1-4.1,0.3-6.1,0.7
					C57,23.6,54,20.6,50,20c-5-0.7-9.7,2.8-10.4,7.8c-0.3,2.2,0.2,4.3,1.3,6.2c-2.6,1.7-5,3.6-7.2,5.8c-0.8,0.8-2.2,0.8-3,0L29,38.2
					c-3.5-3.5-8.2-5.1-13.1-4.4c-1.1,0.1-1.8,1.1-1.7,2.2c0.1,1.1,1.1,1.8,2.2,1.7c2.7-0.3,5.3,0.2,7.6,1.6c1.6,3.1,2.4,6.5,2.4,10
					c0,3.5-0.8,6.9-2.4,10c-1.8,1.1-3.9,1.7-6,1.7c-3.1,0-6.1-1.2-8.3-3.4c-2.6-2.6-3.8-6.2-3.3-9.8c0.1-1.1-0.6-2-1.7-2.2
					c-1.1-0.1-2,0.6-2.2,1.7c-0.6,4.9,1,9.6,4.4,13.1c2.9,3,6.9,4.6,11,4.6c4.2,0,8.1-1.6,11-4.6l1.7-1.7c0.8-0.8,2.2-0.8,3,0
					c2.2,2.2,4.7,4.1,7.2,5.8c-1.1,1.8-1.6,4-1.3,6.2c0.6,4.6,4.6,7.9,9.1,7.9c0.4,0,0.9,0,1.3-0.1c4-0.6,7-3.5,7.8-7.3
					c2,0.4,4,0.6,6.1,0.7c0,2.1,0.7,4.1,2,5.8c1.6,2.1,3.9,3.4,6.5,3.8c0.4,0.1,0.9,0.1,1.3,0.1c2.1,0,4.2-0.7,6-2
					c3.4-2.6,4.7-6.9,3.4-10.8c5.8-2.3,11.1-5.8,15.6-10.4C101,55.7,102.3,52.5,102.3,49.2L102.3,49.2z M65.9,67.8
					c-2.6,0-5.1-0.2-7.6-0.7c0.8-2.5,1.5-5.1,2-7.7l0.3,0.3c0.4,0.4,0.9,0.6,1.4,0.6c0.5,0,1-0.2,1.4-0.6l6.2-6.2
					c0.7,4.8,2.5,9.3,5.2,13.3C71.9,67.5,68.9,67.8,65.9,67.8L65.9,67.8z M37.3,41.8c2-1.8,4.1-3.5,6.4-4.9c2.5,8,2.5,16.6,0,24.6
					c-2.3-1.4-4.4-3-6.4-4.9c0.5-2.4,0.8-4.9,0.8-7.4C38.1,46.7,37.8,44.2,37.3,41.8L37.3,41.8z M47.2,34.9c2.4-1.2,4.8-2.1,7.4-2.8
					c1.2,3.5,2,7.1,2.4,10.8c-2.2,3.9-2.2,8.7,0,12.5c-0.4,3.7-1.3,7.3-2.4,10.8c-2.5-0.7-5-1.7-7.4-2.8
					C50.2,54.2,50.2,44.2,47.2,34.9L47.2,34.9z M65.9,30.6c3,0,6,0.3,8.8,0.9c-2.7,4-4.5,8.5-5.2,13.3l-6.2-6.2
					c-0.8-0.8-2-0.8-2.8,0l-0.3,0.3c-0.5-2.6-1.1-5.2-2-7.7C60.8,30.8,63.4,30.6,65.9,30.6L65.9,30.6z M61.8,42.9l0.2-0.2l6.4,6.4
					L62,55.6l-0.2-0.2C58.4,52,58.4,46.4,61.8,42.9L61.8,42.9z M78.8,65.8c-3.6-4.8-5.6-10.6-5.6-16.6c0,0,0,0,0,0
					c0-6,2-11.9,5.6-16.6c1.3,0.4,2.6,0.9,3.9,1.5c-3.6,4.2-5.6,9.6-5.6,15.2c0,5.6,2,11,5.6,15.2C81.4,64.9,80.1,65.4,78.8,65.8
					L78.8,65.8z M72.9,21.1c1.6-0.2,3.1,0.2,4.4,1.2c2,1.5,2.8,4.1,2.1,6.4c-3.7-1.1-7.6-1.8-11.6-1.9c0-1.2,0.5-2.4,1.2-3.4
					C69.9,22.1,71.3,21.3,72.9,21.1L72.9,21.1z M43.5,28.4c0.4-2.9,3.1-4.9,6-4.5c2.3,0.3,4.1,2.1,4.5,4.3c-3.4,0.9-6.6,2.2-9.7,3.8
					C43.6,31,43.3,29.7,43.5,28.4L43.5,28.4z M29.7,54.5c0.4-1.8,0.6-3.5,0.6-5.3c0-1.8-0.2-3.6-0.6-5.3c1.3,0.6,2.7,0.7,4.1,0.3
					c0.3,1.7,0.4,3.3,0.4,5c0,1.7-0.1,3.4-0.4,5C32.5,53.9,31,54,29.7,54.5L29.7,54.5z M49.5,74.5c-2.9,0.4-5.6-1.6-6-4.5
					c-0.2-1.3,0.1-2.6,0.8-3.6c3.1,1.6,6.3,2.9,9.7,3.8C53.6,72.4,51.8,74.2,49.5,74.5L49.5,74.5z M77.3,76.2
					c-1.3,1-2.8,1.4-4.4,1.2c-1.6-0.2-3-1-3.9-2.3c-0.8-1-1.2-2.2-1.2-3.4c4-0.2,7.9-0.8,11.6-1.9C80.1,72.1,79.3,74.6,77.3,76.2
					L77.3,76.2z M95.9,55.3c-2.9,2.9-6.1,5.4-9.6,7.3C82.9,59,81,54.2,81,49.2c0-5,1.9-9.8,5.3-13.4c3.5,1.9,6.7,4.4,9.6,7.3
					C99.2,46.5,99.2,51.9,95.9,55.3L95.9,55.3z M95.9,55.3"/>
			</g>
			<path class="st8" d="M8.3,41.5c0.5,0,1-0.2,1.4-0.6c0.4-0.4,0.6-0.9,0.6-1.4c0-0.5-0.2-1-0.6-1.4c-0.4-0.4-0.9-0.6-1.4-0.6
				c-0.5,0-1,0.2-1.4,0.6c-0.4,0.4-0.6,0.9-0.6,1.4c0,0.5,0.2,1,0.6,1.4C7.2,41.3,7.8,41.5,8.3,41.5L8.3,41.5z M8.3,41.5"/>
		</g>
	</g>
</g>
<g id="Layer_8">
</g>
<g id="Layer_9">
</g>
<g id="Layer_10">
</g>
<g id="Layer_11">
</g>
</svg>
