<?xml version="1.0" encoding="utf-8"?>
<!-- Generator: Adobe Illustrator 22.1.0, SVG Export Plug-In . SVG Version: 6.00 Build 0)  -->
<svg version="1.1" xmlns="http://www.w3.org/2000/svg" xmlns:xlink="http://www.w3.org/1999/xlink" x="0px" y="0px"
	 viewBox="0 0 105 105" style="enable-background:new 0 0 105 105;" xml:space="preserve">
<style type="text/css">
	.st0{fill:#F15A24;}
	.st1{display:none;}
	.st2{display:inline;fill:#F15A24;}
	.st3{display:inline;}
	.st4{display:inline;fill:none;stroke:#000000;stroke-miterlimit:10;}
	.st5{fill:#FFFFFF;stroke:#000000;stroke-miterlimit:10;}
	.st6{display:inline;fill:#FFFFFF;stroke:#000000;stroke-miterlimit:10;}
	.st7{fill:none;stroke:#000000;stroke-miterlimit:10;}
	.st8{fill:#E76F51;}
	.st9{fill:#ED1E79;}
	.st10{stroke:#000000;stroke-miterlimit:10;}
	.st11{fill:#FFFFFF;}
	.st12{display:none;fill:url(#);}
	.st13{fill:none;stroke:#12100B;stroke-width:0.5;stroke-miterlimit:10;}
	.st14{fill:none;stroke:#13110C;stroke-width:0.5;stroke-linecap:round;stroke-miterlimit:10;}
	.st15{fill:#12100B;}
	.st16{fill:#2A9D8F;}
	.st17{display:none;fill:#264653;}
	.st18{fill:#F2F2F2;}
	.st19{fill:#F4A261;}
	.st20{display:inline;fill:#F2F2F2;}
	.st21{clip-path:url(#SVGID_2_);fill:#F2F2F2;}
	.st22{clip-path:url(#SVGID_4_);fill:#E76F51;}
	.st23{clip-path:url(#SVGID_6_);fill:#E76F51;}
	.st24{clip-path:url(#SVGID_8_);fill:#E76F51;}
	.st25{clip-path:url(#SVGID_10_);fill:#E76F51;}
	.st26{clip-path:url(#SVGID_12_);fill:#E76F51;}
	.st27{clip-path:url(#SVGID_14_);fill:#E76F51;}
	.st28{clip-path:url(#SVGID_16_);fill:#E76F51;}
	.st29{clip-path:url(#SVGID_18_);fill:#F2F2F2;}
	.st30{clip-path:url(#SVGID_20_);fill:#E76F51;}
	.st31{clip-path:url(#SVGID_22_);fill:#E76F51;}
	.st32{clip-path:url(#SVGID_24_);fill:#E76F51;}
	.st33{fill:#264653;}
</style>
<g id="Layer_2">
</g>
<g id="Layer_1">
</g>
<g id="Layer_3">
</g>
<g id="Layer_4">
</g>
<g id="Guides" class="st1">
</g>
<g id="Layer_5">
</g>
<g id="Layer_7">
	<g>
		<g>
			<g>
				<defs>
					<rect id="SVGID_15_" x="10.4" y="4.2" width="90" height="90"/>
				</defs>
				<clipPath id="SVGID_2_">
					<use xlink:href="#SVGID_15_"  style="overflow:visible;"/>
				</clipPath>
				<path style="clip-path:url(#SVGID_2_);fill:#E76F51;" d="M84.4,39.8c0.5,0,0.9-0.2,1.2-0.5c0.3-0.3,0.5-0.8,0.5-1.2
					c0-0.5-0.2-0.9-0.5-1.2c-0.3-0.3-0.8-0.5-1.2-0.5c-0.5,0-0.9,0.2-1.2,0.5c-0.3,0.3-0.5,0.8-0.5,1.2c0,0.5,0.2,0.9,0.5,1.2
					C83.5,39.6,84,39.8,84.4,39.8L84.4,39.8z M84.4,39.8"/>
				<path style="clip-path:url(#SVGID_2_);fill:#E76F51;" d="M100.4,43.9c0-2.2-0.9-4.4-2.5-6.1L91.8,31c-1.9-2.1-4.3-3.7-7-4.5
					l-4.9-9.6c-0.3-0.6-0.9-1-1.6-1c-0.7,0-1.3,0.4-1.6,1.1l-4.8,11.1c-1.9,1.2-3.5,2.7-4.8,4.5l-6.5,8.6h-3.3V27.6
					c0-6.2-2.4-12.1-6.9-16.5C45.9,6.6,40,4.2,33.8,4.2c0,0,0,0,0,0c-12.9,0-23.4,10.5-23.4,23.4v6.5c0,0.5,0.3,1.1,0.7,1.4
					c0.4,0.3,1,0.4,1.5,0.3c3.5-0.9,6.3,0.8,7.7,2.8c1.4,1.9,2.2,5.1,0.2,8.2c-2.3,3.6-4,7.6-5,11.8c-0.2,0.9,0.4,1.9,1.3,2.1
					c0.1,0,0.3,0,0.4,0c0.8,0,1.5-0.6,1.7-1.4c0.9-3.8,2.4-7.4,4.5-10.7c2.4-3.8,2.3-8.5-0.3-12.1c-2.2-3.1-5.6-4.7-9.2-4.4v-4.4
					c0-5.3,2.1-10.3,5.8-14.1c3.8-3.8,8.7-5.8,14.1-5.8c5.3,0,10.3,2.1,14.1,5.8c3.8,3.8,5.8,8.7,5.8,14.1v13.7
					C39.4,41.7,28,53.4,28,67.7c0,9.8,5.3,18.4,13.3,22.9c-10.1-0.3-19-6.9-22.1-16.6c-0.3-0.9-1.3-1.4-2.2-1.1
					c-0.9,0.3-1.4,1.3-1.1,2.2c1.8,5.5,5.1,10.2,9.8,13.7c4.7,3.5,10.4,5.4,16.3,5.4h26.9c1,0,1.8-0.8,1.8-1.8c0-2.5-1-4.9-2.8-6.7
					c-0.6-0.6-1.2-1.1-1.9-1.5c2.1-1.4,3.9-3.2,5.3-5.3c1.4-2,2.3-4.3,2.9-6.7l1-4.5c3.5-0.1,6.8-1.6,9.1-4.4
					c0.4-0.5,1.1-0.9,1.8-0.9c3.5,0,6.3-2.8,6.3-6.3c0-1-0.2-2-0.7-2.8c2.3-0.1,4.4-1.1,6-2.8C99.5,48.8,100.4,46.4,100.4,43.9
					L100.4,43.9z M86.1,59c-1.8,0-3.4,0.8-4.5,2.1c-1.6,2-4,3.1-6.6,3.1h-5.4c-1,0-1.8,0.8-1.8,1.8c0,1,0.8,1.8,1.8,1.8h2l-0.8,3.8
					c-0.4,2-1.2,3.8-2.4,5.5c-1.4,2-3.1,3.7-5.2,4.9c1.2-2.1,1.9-4.6,1.9-7.1c0-7.8-6.3-14.1-14.1-14.1c-1,0-1.8,0.8-1.8,1.8
					c0,1,0.8,1.8,1.8,1.8c5.8,0,10.6,4.7,10.6,10.6c0,3.3-1.6,6.5-4.3,8.5c-0.6,0.5-0.9,1.2-0.6,2c0.2,0.7,0.9,1.2,1.7,1.2h2.8
					c1.6,0,3.1,0.6,4.2,1.8c0.7,0.7,1.2,1.5,1.5,2.5H54.5c-12.7,0-23-10.3-23-23c0-12.7,10.3-23,23-23h6.9c0.6,0,1.1-0.3,1.4-0.7
					l7-9.4c0,0,0,0,0-0.1c1.1-1.6,2.5-2.9,4.2-3.8c0.3-0.2,0.6-0.5,0.8-0.8l3.6-8.2l3.5,6.9c0.2,0.5,0.6,0.9,1.2,1
					c2.4,0.6,4.5,1.9,6.1,3.7l6.1,6.8c1,1.1,1.5,2.4,1.6,3.8c0,0.8-0.1,1.6-0.4,2.3l-1.8-0.9c-0.9-0.4-1.9,0-2.3,0.8
					c-0.4,0.9,0,1.9,0.8,2.3L94,49c-0.9,0.5-1.9,0.8-2.9,0.8c0,0-5,0-5,0c-2.1,0-4.1,0.6-5.8,1.7c-1.1,0.7-2.4,1-3.7,1h-5.3
					c-1,0-1.8,0.8-1.8,1.8c0,1,0.8,1.8,1.8,1.8h5.3c2,0,3.9-0.5,5.5-1.6c1.2-0.7,2.6-1.1,4-1.1c1.6,0,2.8,1.3,2.8,2.8
					C88.9,57.7,87.6,59,86.1,59L86.1,59z M86.1,59"/>
			</g>
			<path class="st8" d="M17.6,68c0.3-0.3,0.5-0.8,0.5-1.2c0-0.5-0.2-0.9-0.5-1.2c-0.3-0.3-0.8-0.5-1.2-0.5c-0.5,0-0.9,0.2-1.2,0.5
				c-0.3,0.3-0.5,0.8-0.5,1.2c0,0.5,0.2,0.9,0.5,1.2c0.3,0.3,0.8,0.5,1.2,0.5C16.8,68.5,17.3,68.4,17.6,68L17.6,68z M17.6,68"/>
		</g>
	</g>
</g>
<g id="Layer_8">
</g>
<g id="Layer_9">
</g>
<g id="Layer_10">
</g>
<g id="Layer_11">
</g>
</svg>
